<?xml version="1.0" encoding="UTF-8"?>
<svg version="1.1" xmlns="http://www.w3.org/2000/svg" width="3334" height="2043">
<path d="M0 0 C1100.22 0 2200.44 0 3334 0 C3334 674.19 3334 1348.38 3334 2043 C2233.78 2043 1133.56 2043 0 2043 C0 1368.81 0 694.62 0 0 Z " fill="#FEFEFE" transform="translate(0,0)"/>
<path d="M0 0 C-0.55011315 4.13357811 -1.46366177 7.43792671 -3.30078125 11.17578125 C-3.77708984 12.15546875 -4.25339844 13.13515625 -4.74414062 14.14453125 C-5.26169922 15.18996094 -5.77925781 16.23539062 -6.3125 17.3125 C-7.41296304 19.56891161 -8.51321772 21.82542484 -9.61328125 24.08203125 C-10.17740723 25.23268066 -10.7415332 26.38333008 -11.32275391 27.56884766 C-13.91165097 32.86496983 -16.45481813 38.1827712 -19 43.5 C-20.00236587 45.58865605 -21.00497063 47.67719746 -22.0078125 49.765625 C-23.98265956 53.87978264 -25.95655352 57.99439552 -27.9296875 62.109375 C-33.29136867 73.28897479 -38.66820649 84.46110678 -44.0625 95.625 C-49.16417945 106.1834996 -54.23910503 116.75446816 -59.29296875 127.3359375 C-63.67596293 136.51158141 -68.08176913 145.67629394 -72.48388672 154.84277344 C-74.98994908 160.06151715 -77.49492296 165.28078326 -80 170.5 C-80.99999471 172.58333587 -81.99999471 174.66666921 -83 176.75 C-83.7425 178.296875 -83.7425 178.296875 -84.5 179.875 C-102 216.33333333 -119.5 252.79166667 -137 289.25 C-137.49483887 290.28092773 -137.98967773 291.31185547 -138.49951172 292.37402344 C-139.50109701 294.46063229 -140.50272472 296.54722078 -141.50439453 298.63378906 C-143.98048516 303.79184211 -146.45587525 308.95022881 -148.9296875 314.109375 C-154.29136867 325.28897479 -159.66820649 336.46110678 -165.0625 347.625 C-170.16417945 358.1834996 -175.23910503 368.75446816 -180.29296875 379.3359375 C-184.67596293 388.51158141 -189.08176913 397.67629394 -193.48388672 406.84277344 C-195.98994908 412.06151715 -198.49492296 417.28078326 -201 422.5 C-201.99999471 424.58333587 -202.99999471 426.66666921 -204 428.75 C-204.7425 430.296875 -204.7425 430.296875 -205.5 431.875 C-219 460 -232.5 488.125 -246 516.25 C-246.49483887 517.28092773 -246.98967773 518.31185547 -247.49951172 519.37402344 C-248.50109701 521.46063229 -249.50272472 523.54722078 -250.50439453 525.63378906 C-252.98048516 530.79184211 -255.45587525 535.95022881 -257.9296875 541.109375 C-263.29136867 552.28897479 -268.66820649 563.46110678 -274.0625 574.625 C-279.16417945 585.1834996 -284.23910503 595.75446816 -289.29296875 606.3359375 C-293.67596293 615.51158141 -298.08176913 624.67629394 -302.48388672 633.84277344 C-304.98994908 639.06151715 -307.49492296 644.28078326 -310 649.5 C-310.99999471 651.58333587 -311.99999471 653.66666921 -313 655.75 C-313.7425 657.296875 -313.7425 657.296875 -314.5 658.875 C-316 662 -317.5 665.125 -319 668.25 C-319.4957251 669.28294189 -319.9914502 670.31588379 -320.50219727 671.38012695 C-321.49430072 673.4466453 -322.48696911 675.51289254 -323.48022461 677.57885742 C-326.10593091 683.04227822 -328.71935233 688.51117571 -331.31640625 693.98828125 C-331.85974609 695.13039063 -332.40308594 696.2725 -332.96289062 697.44921875 C-334.00556753 699.64151377 -335.04480138 701.83545068 -336.08007812 704.03125 C-336.54994141 705.01738281 -337.01980469 706.00351563 -337.50390625 707.01953125 C-337.91455322 707.88682861 -338.3252002 708.75412598 -338.74829102 709.64770508 C-339.98041462 711.96319385 -341.36904486 713.95071449 -343 716 C-348.24626107 714.06239602 -349.63288378 709.67051995 -351.875 704.91015625 C-356.32361904 694.9115401 -359.98225782 684.55495606 -363.77978516 674.29492188 C-365.0230899 670.9376508 -366.28222215 667.58672089 -367.54711914 664.23754883 C-369.22019766 659.80409414 -370.87063155 655.36268727 -372.4921875 650.91015625 C-376.22924536 640.66375256 -380.11474113 630.47923402 -384.0625 620.3125 C-388.64265865 608.51654153 -393.18254466 596.71065526 -397.52783203 584.82568359 C-402.05260841 572.46214786 -406.75700228 560.1735522 -411.52319336 547.90136719 C-415.09305402 538.70277483 -418.57344145 529.48976054 -421.82104492 520.17218018 C-424.16855101 513.45887094 -426.6999872 506.82238719 -429.26470947 500.1895752 C-439.71544633 473.14446579 -449.68878099 445.92029173 -459.6484375 418.69140625 C-461.03373944 414.90785038 -462.42250953 411.125585 -463.8125 407.34375 C-468.76015004 393.87944083 -473.67257136 380.40327511 -478.51953125 366.90234375 C-481.6885356 358.07640623 -484.8764939 349.25731055 -488.0625 340.4375 C-488.65348874 338.80127158 -489.24447194 337.16504116 -489.83544922 335.52880859 C-491.22350181 331.68582506 -492.61170503 327.84289598 -494 324 C-494.37584229 325.09779785 -494.37584229 325.09779785 -494.75927734 326.21777344 C-499.80207664 340.93222727 -504.91107892 355.6178409 -510.16996765 370.25679016 C-513.06209248 378.32708633 -515.88521362 386.41876385 -518.66796875 394.52734375 C-519.54824734 397.08591977 -520.42880642 399.64439617 -521.31005859 402.20263672 C-521.5332203 402.85048535 -521.75638201 403.49833399 -521.98630619 404.1658144 C-525.83268161 415.32424792 -529.73348466 426.46380219 -533.6283989 437.60536194 C-534.56884923 440.29588696 -535.50883007 442.98657592 -536.44882679 445.67725945 C-544.15022596 467.7217057 -551.8634648 489.76201094 -559.58178711 511.80053711 C-563.43682689 522.80935328 -567.2890079 533.81910716 -571.12109375 544.8359375 C-577.59040534 563.43121973 -584.12211 582.00113585 -590.76599121 600.53485107 C-595.1838319 612.86103389 -599.53467167 625.20658454 -603.76879883 637.59716797 C-606.443409 645.423795 -609.20162852 653.21689303 -612 661 C-614.39750075 660.621105 -615.68869992 660.32696664 -617.38682556 658.54338074 C-617.80565506 657.91442398 -618.22448456 657.28546722 -618.65600586 656.63745117 C-619.1438707 655.91688034 -619.63173553 655.19630951 -620.13438416 654.4539032 C-620.65593582 653.65829483 -621.17748749 652.86268646 -621.71484375 652.04296875 C-622.27357681 651.21025955 -622.83230988 650.37755035 -623.40797424 649.51960754 C-625.26233978 646.74953146 -627.09987318 643.96870292 -628.9375 641.1875 C-630.23998665 639.23442636 -631.5433867 637.28196159 -632.84765625 635.33007812 C-636.91614685 629.23171936 -640.96120477 623.11805483 -645 617 C-645.62481262 616.05368713 -646.24962524 615.10737427 -646.89337158 614.13238525 C-652.31072129 605.9243939 -657.71971179 597.71091813 -663.11889648 589.4909668 C-671.48488857 576.76261046 -679.96106501 564.11287191 -688.5 551.5 C-698.8881986 536.15557842 -709.14161684 520.7289709 -719.3125 505.23974609 C-728.27704863 491.59247662 -737.34624583 478.02102213 -746.5 464.5 C-756.88276283 449.1636076 -767.13177871 433.74567219 -777.29638672 418.26391602 C-787.74300998 402.35791531 -798.3373646 386.55598536 -809.02148438 370.80859375 C-811.79388715 366.72061206 -814.55379373 362.62445687 -817.3046875 358.52197266 C-818.48668837 356.76361019 -819.67324461 355.00830504 -820.86328125 353.25537109 C-822.72329435 350.51166081 -824.56631787 347.75720439 -826.40625 345 C-826.98266235 344.15671143 -827.55907471 343.31342285 -828.1529541 342.44458008 C-828.93285706 341.26545044 -828.93285706 341.26545044 -829.72851562 340.0625 C-830.4244281 339.02802734 -830.4244281 339.02802734 -831.13439941 337.97265625 C-832 336 -832 336 -831.84411621 333.87426758 C-830.29849439 330.44238364 -826.48736118 329.27596522 -823.25 327.6875 C-822.4245166 327.26726562 -821.5990332 326.84703125 -820.74853516 326.4140625 C-818.88422805 325.46518189 -817.01699711 324.52203214 -815.14746094 323.58349609 C-809.20404909 320.59334955 -803.28855509 317.54865912 -797.375 314.5 C-796.74501099 314.17536774 -796.11502197 313.85073547 -795.46594238 313.51626587 C-785.43397578 308.33887637 -775.61293433 302.92239107 -766 297 C-765.16001465 296.48695313 -764.3200293 295.97390625 -763.45458984 295.4453125 C-746.49836084 285.20780148 -746.49836084 285.20780148 -730.234375 273.92578125 C-728.91179687 272.94158203 -728.91179687 272.94158203 -727.5625 271.9375 C-726.41974609 271.05384766 -726.41974609 271.05384766 -725.25390625 270.15234375 C-723 269 -723 269 -720.578125 268.80859375 C-716.39591326 270.74128251 -714.61512768 274.32141356 -712.1875 278.125 C-711.03654411 279.86810469 -709.88413546 281.61025078 -708.73046875 283.3515625 C-707.82240479 284.73456543 -707.82240479 284.73456543 -706.89599609 286.14550781 C-703.67977943 290.98764086 -700.33450844 295.73893178 -697 300.5 C-692.1334464 307.47764733 -687.29331635 314.47184569 -682.5 321.5 C-671.8408538 337.12084613 -661.05986871 352.6597494 -650 368 C-647.80692955 365.27912226 -646.38104476 362.82267175 -645.19750977 359.53979492 C-644.87566711 358.65803589 -644.55382446 357.77627686 -644.222229 356.86779785 C-643.8820575 355.91497925 -643.54188599 354.96216064 -643.19140625 353.98046875 C-642.82843445 352.98196899 -642.46546265 351.98346924 -642.0914917 350.95471191 C-641.31341788 348.81290753 -640.53827505 346.67003655 -639.76577759 344.5262146 C-637.74854184 338.92902364 -635.71015201 333.33955621 -633.671875 327.75 C-633.26926956 326.6446843 -632.86666412 325.53936859 -632.45185852 324.40055847 C-629.18421396 315.45125374 -625.79366925 306.55559966 -622.3125 297.6875 C-618.83951817 288.82677229 -615.5137552 279.94802143 -612.44091797 270.94091797 C-610.19015167 264.39561781 -607.66388014 257.97910476 -605.01464844 251.58520508 C-602.9259323 246.49630296 -601.05012559 241.34798752 -599.23950195 236.15454102 C-596.30366259 227.78878717 -593.21859878 219.48599885 -590.078125 211.1953125 C-589.52754648 209.73736392 -588.97715666 208.27934407 -588.42694092 206.82125854 C-586.99226744 203.0204924 -585.55559069 199.22048717 -584.11828613 195.42071533 C-581.84036365 189.3979754 -579.56492115 183.3742986 -577.29048157 177.35024261 C-576.73411288 175.87690528 -576.1775448 174.40364323 -575.62077332 172.93045807 C-572.71367452 165.23767341 -569.82068322 157.54028387 -566.97851562 149.82324219 C-566.62489267 148.86379731 -566.62489267 148.86379731 -566.26412582 147.88496971 C-565.16153102 144.89156839 -564.06272186 141.89685325 -562.96905518 138.900177 C-562.58964783 137.86690277 -562.21024048 136.83362854 -561.81933594 135.76904297 C-561.32527252 134.41551224 -561.32527252 134.41551224 -560.82122803 133.03463745 C-560 131 -560 131 -559 130 C-557.41760361 129.8866653 -555.83019742 129.84260923 -554.24383545 129.82591248 C-553.21474564 129.81297653 -552.18565582 129.80004059 -551.12538147 129.78671265 C-549.98669113 129.77773956 -548.84800079 129.76876648 -547.67480469 129.75952148 C-546.48300095 129.74652512 -545.2911972 129.73352875 -544.0632782 129.72013855 C-533.06435459 129.60835827 -522.06469623 129.54759277 -511.0653038 129.50337124 C-502.93216383 129.47012652 -494.80013746 129.41057596 -486.66747546 129.31586021 C-480.95194037 129.25154181 -475.23670878 129.21783648 -469.52082562 129.20662171 C-466.10569835 129.19905755 -462.69191492 129.17785482 -459.27718353 129.12359428 C-455.46479669 129.07036099 -451.65545094 129.06710376 -447.84277344 129.07592773 C-446.71218002 129.04873657 -445.58158661 129.02154541 -444.41673279 128.99353027 C-436.96057704 129.08270346 -436.96057704 129.08270346 -434.21582794 131.70378304 C-432.88536936 133.76695184 -431.89973951 135.71883755 -431 138 C-430.7184994 138.6959408 -430.43699881 139.3918816 -430.14696789 140.10891151 C-429.35474928 142.17695361 -428.67421297 144.26560091 -428 146.375 C-425.19854933 154.80648008 -422.09051761 163.10706332 -418.89027214 171.39290428 C-413.99426903 184.07727729 -409.18584321 196.79248321 -404.46484375 209.54296875 C-404.196292 210.26789268 -403.92774025 210.99281662 -403.65105057 211.73970795 C-401.47060785 217.62663934 -399.29402043 223.51499375 -397.11883545 229.40386963 C-395.2159583 234.55537471 -393.31086459 239.70605168 -391.40234375 244.85546875 C-391.13726643 245.57086382 -390.8721891 246.28625889 -390.59907913 247.0233326 C-386.15829971 258.99641228 -381.59347553 270.91878846 -376.93797302 282.8099823 C-373.92850454 290.51606292 -371.10356173 298.26039459 -368.42996216 306.08851624 C-366.54236311 311.57289197 -364.45314001 316.9469513 -362.26171875 322.31640625 C-358.47359901 331.69630311 -354.94094159 341.15441366 -351.49838257 350.66577148 C-350.21172746 354.21857922 -348.91610293 357.76809619 -347.62110901 361.31787109 C-346.66693739 363.93365897 -345.71366524 366.54977267 -344.76074219 369.16601562 C-344.46276733 369.98400635 -344.16479248 370.80199707 -343.85778809 371.64477539 C-343.30918996 373.15105863 -342.76075306 374.6574006 -342.21252441 376.16381836 C-340.7141059 380.27958017 -339.20445799 384.3910239 -337.6875 388.5 C-337.33308838 389.47743164 -336.97867676 390.45486328 -336.61352539 391.46191406 C-336.2911792 392.33041992 -335.96883301 393.19892578 -335.63671875 394.09375 C-335.36561279 394.83302734 -335.09450684 395.57230469 -334.81518555 396.33398438 C-334.11269565 398.19650777 -334.11269565 398.19650777 -332 399 C-331.82975311 398.45060257 -331.65950623 397.90120514 -331.48410034 397.3351593 C-329.70782676 391.78602927 -327.54903657 386.59310833 -325.0078125 381.35546875 C-324.62565079 380.5564212 -324.24348907 379.75737366 -323.8497467 378.93411255 C-323.03454569 377.2309124 -322.21701174 375.52882716 -321.39730835 373.82778931 C-319.2325078 369.33540368 -317.08431343 364.83507645 -314.93359375 360.3359375 C-314.50599258 359.44270279 -314.07839142 358.54946808 -313.63783264 357.62916565 C-310.09329282 350.21780854 -306.62481349 342.77414447 -303.1875 335.3125 C-297.15984689 322.25577013 -290.90792581 309.31335123 -284.6328125 296.37451172 C-282.19717395 291.34081015 -279.78427542 286.29636073 -277.375 281.25 C-276.48179867 279.38019503 -275.58856957 277.51040334 -274.6953125 275.640625 C-274.25348633 274.71572266 -273.81166016 273.79082031 -273.35644531 272.83789062 C-270.99150243 267.89006916 -268.62173163 262.94457043 -266.25 258 C-265.75870605 256.97543701 -265.26741211 255.95087402 -264.76123047 254.89526367 C-261.96472747 249.07018459 -259.15407545 243.25223744 -256.328125 237.44140625 C-255.05172209 234.81527957 -253.77575826 232.1889399 -252.5 229.5625 C-252.18183319 228.90781738 -251.86366638 228.25313477 -251.53585815 227.57861328 C-247.17789543 218.60357992 -242.94705984 209.58070327 -238.8125 200.5 C-234.94699665 192.03957944 -230.91024204 183.69382658 -226.625 175.4375 C-226.14909424 174.51582031 -225.67318848 173.59414063 -225.18286133 172.64453125 C-222.47676321 167.50251822 -219.54578864 162.65590242 -216.21240234 157.89477539 C-214.83449318 155.91172865 -214.83449318 155.91172865 -214 153 C-214.92554687 152.79246094 -215.85109375 152.58492187 -216.8046875 152.37109375 C-226.67021349 150.12212131 -236.44090306 147.57926753 -246.2043457 144.92407227 C-252.67403632 143.16491252 -259.14842321 141.42669748 -265.6328125 139.72265625 C-266.36731125 139.52956375 -267.10181 139.33647125 -267.85856628 139.13752747 C-269.34840871 138.74588911 -270.83825144 138.35425195 -272.32809448 137.96261597 C-291.87565233 132.82189419 -291.87565233 132.82189419 -300.375 130.25 C-309.49651115 127.49143973 -318.74197198 125.24988271 -328 123 C-328.33 121.68 -328.66 120.36 -329 119 C-324.26010662 117.31956457 -319.52024526 116.13301365 -314.62109375 115.046875 C-312.97193936 114.67477089 -311.32285334 114.30236367 -309.67382812 113.9296875 C-308.81861572 113.73729492 -307.96340332 113.54490234 -307.08227539 113.34667969 C-293.17983088 110.2101917 -279.37652378 106.95769896 -265.73388672 102.81738281 C-262.56068389 101.86865241 -259.37715305 100.96040043 -256.19140625 100.0546875 C-193.9639214 82.32593193 -134.1267995 59.66220762 -75.19537354 32.99285889 C-72.98838556 31.99474736 -70.78022145 30.99927954 -68.57177734 30.00439453 C-55.18764597 23.97117475 -41.82214054 17.91210196 -28.64453125 11.4375 C-27.88253922 11.06383301 -27.12054718 10.69016602 -26.33546448 10.30517578 C-22.67986614 8.51012945 -19.03107413 6.70300715 -15.3918457 4.875 C-14.08687086 4.22892512 -12.78178269 3.58307909 -11.4765625 2.9375 C-9.7762085 2.08478516 -9.7762085 2.08478516 -8.04150391 1.21484375 C-5.06849798 0.0273596 -3.15704992 -0.27663733 0 0 Z " fill="#0C293C" transform="translate(2554,371)"/>
<path d="M0 0 C0 1.65 0 3.3 0 5 C-0.70680908 5.37584229 -1.41361816 5.75168457 -2.1418457 6.13891602 C-28.46216564 20.14945085 -54.54766407 34.44992608 -80 50 C-81.65491455 51.00861084 -81.65491455 51.00861084 -83.34326172 52.03759766 C-117.02633091 72.58383487 -149.97750819 94.30233707 -181.90722656 117.48486328 C-184.92754008 119.67152517 -187.9626807 121.8370538 -191 124 C-220.41080191 144.95203931 -220.41080191 144.95203931 -249 167 C-249.94456055 167.75531006 -249.94456055 167.75531006 -250.90820312 168.52587891 C-258.46583514 174.57756897 -265.92763609 180.72755258 -273.25 187.0625 C-273.8699585 187.59858887 -274.48991699 188.13467773 -275.12866211 188.68701172 C-278.19618156 191.36051835 -281.16619474 194.07500794 -284 197 C-271.89950731 196.61645133 -259.81873223 196.16975001 -247.7460022 195.24627686 C-228.97923303 193.84991964 -210.26347742 193.69056775 -191.45214844 193.73925781 C-187.04204565 193.75056344 -182.63218681 193.74391474 -178.22209263 193.73238087 C-146.05433944 193.66117105 -113.83029579 194.51810783 -81.8125 197.8125 C-80.08878898 197.98310501 -78.36507468 198.15367683 -76.64135742 198.32421875 C-51.72061516 200.8340852 -26.87781211 204.04788224 -2.24316406 208.59326172 C7.3210142 210.37516284 7.3210142 210.37516284 17 211 C16.62302979 210.51756836 16.24605957 210.03513672 15.85766602 209.53808594 C9.34186029 201.19420441 2.83971351 192.84614313 -3.484375 184.35546875 C-6.8295131 179.87707407 -10.2325833 175.44260349 -13.625 171 C-18.9958502 163.96506671 -24.32875432 156.90374242 -29.625 149.8125 C-34.41293278 143.40516551 -39.26293433 137.05289953 -44.1875 130.75 C-45.89065022 128.56351358 -47.59305269 126.3764485 -49.29492188 124.18896484 C-50.45824017 122.69550667 -51.62369829 121.20371344 -52.79101562 119.71337891 C-54.51685657 117.50420819 -56.22865737 115.28483221 -57.9375 113.0625 C-58.46432373 112.39379883 -58.99114746 111.72509766 -59.53393555 111.03613281 C-60.76984321 109.41580957 -61.89661506 107.7133175 -63 106 C-62.67 105.01 -62.34 104.02 -62 103 C-59.11614317 101.9024127 -56.33909648 101.01048841 -53.375 100.1875 C-52.48490234 99.93033203 -51.59480469 99.67316406 -50.67773438 99.40820312 C-43.01054176 97.21833783 -35.29111825 95.22769414 -27.56738281 93.24853516 C-21.3755862 91.65242298 -15.24044274 89.92916991 -9.125 88.0625 C7.51620873 82.984785 24.28613937 78.37621201 41.14379883 74.07397461 C46.33450505 72.73877845 51.415878 71.25720733 56.5 69.5625 C64.58237338 67.09435715 64.58237338 67.09435715 69 69 C74.38941973 74.31242802 78.36402976 80.92269676 82.48828125 87.2265625 C85.79278812 92.2371171 89.25177212 97.14152088 92.6875 102.0625 C97.75955763 109.33368506 102.8127971 116.61634448 107.8125 123.9375 C108.34407715 124.71585205 108.8756543 125.4942041 109.42333984 126.29614258 C110.45944001 127.81371326 111.49541389 129.33137017 112.53125 130.84912109 C119.94630967 141.70794351 127.43965323 152.51110374 134.95629883 163.29980469 C139.69521483 170.10790369 144.39230576 176.94311439 149.06591797 183.79614258 C153.34085413 190.05629241 157.66501743 196.28131533 162 202.5 C167.39492918 210.2392153 172.75107599 218.00282465 178.06640625 225.796875 C182.34119868 232.05676759 186.66518522 238.28155603 191 244.5 C196.39492918 252.2392153 201.75107599 260.00282465 207.06640625 267.796875 C211.34119899 274.05676805 215.66522669 280.28152669 220 286.5 C226.56214736 295.91484669 233.06208679 305.37022921 239.53125 314.84912109 C246.94630967 325.70794351 254.43965323 336.51110374 261.95629883 347.29980469 C266.69521483 354.10790369 271.39230576 360.94311439 276.06591797 367.79614258 C280.34085444 374.05629287 284.6650589 380.28128599 289 386.5 C294.50065766 394.39190576 299.97249911 402.30205049 305.3894043 410.25170898 C307.99088909 414.06921664 310.6051674 417.87642062 313.25 421.6640625 C314.02380005 422.77599976 314.02380005 422.77599976 314.81323242 423.91040039 C315.78874808 425.3106887 316.76789302 426.70845795 317.7512207 428.10327148 C321 432.7765578 321 432.7765578 321 435 C316.46058877 434.44370581 313.06108864 433.25296601 309.01171875 431.1484375 C307.84785645 430.55216553 306.68399414 429.95589355 305.48486328 429.34155273 C304.55966888 428.86188553 304.55966888 428.86188553 303.61578369 428.37252808 C287.36153251 419.963977 270.77777782 412.35524483 254.06176758 404.9185791 C252.01572485 404.00700589 249.97149336 403.09148528 247.92773438 402.17480469 C228.52013358 393.47755757 208.94502158 385.3845038 189 378 C188.33909363 377.75463501 187.67818726 377.50927002 186.99725342 377.25646973 C169.52563316 370.78080036 151.9116921 364.9119393 134.0625 359.5625 C133.24435822 359.31701416 132.42621643 359.07152832 131.58328247 358.81860352 C120.44185596 355.48903673 109.24218913 352.43985675 97.98703003 349.52029419 C95.47952807 348.86371695 92.98126149 348.17623422 90.484375 347.48046875 C71.87615741 342.35391255 52.9373545 338.67551427 34 335 C33.19032776 334.84275452 32.38065552 334.68550903 31.54644775 334.52349854 C-8.09168456 326.85674828 -48.04009587 321.44338271 -88.28369141 318.22003174 C-90.97887654 318.00171108 -93.67300852 317.77285212 -96.3671875 317.54248047 C-125.64744187 315.08477021 -154.90143828 314.71070141 -184.2662468 314.68992615 C-187.13023317 314.68754756 -189.99420317 314.68223786 -192.85818481 314.67663574 C-245.16429832 314.60161278 -297.18349221 317.80037557 -349 325 C-349.70795715 325.09819031 -350.41591431 325.19638062 -351.14532471 325.29754639 C-382.5482979 329.68171262 -413.6587914 335.85846035 -444.5 343.1875 C-445.36220154 343.39160492 -446.22440308 343.59570984 -447.11273193 343.80599976 C-457.22619056 346.21160234 -467.22563147 348.86510501 -477.18066406 351.85913086 C-481.37317171 353.11146966 -485.58452878 354.27306227 -489.80688477 355.41943359 C-513.11439164 361.77180443 -535.99091881 369.33899414 -558.52246094 378.04638672 C-561.85878945 379.330551 -565.21014926 380.57075453 -568.5625 381.8125 C-571.37733371 382.86885584 -574.18867082 383.93435764 -577 385 C-578.01723145 385.38430176 -579.03446289 385.76860352 -580.08251953 386.16455078 C-638.63763826 408.34941333 -699.05207364 432.96564867 -752.45751953 465.94018555 C-754.26299726 467.03277705 -756.12718827 468.0273324 -758 469 C-758.99 468.67 -759.98 468.34 -761 468 C-759.62267001 463.89715986 -757.76356341 461.33157616 -754.8125 458.1875 C-754.00167969 457.31222656 -753.19085937 456.43695312 -752.35546875 455.53515625 C-751.18951172 454.28025391 -751.18951172 454.28025391 -750 453 C-748.86903218 451.71355545 -747.74352769 450.42227545 -746.625 449.125 C-742.31525388 444.17971528 -737.86049931 439.3675661 -733.41748047 434.54248047 C-732.0781119 433.08500017 -730.74396875 431.6227229 -729.41015625 430.16015625 C-715.25955617 414.6476939 -700.72630564 399.55991792 -685.86083984 384.73046875 C-683.45292584 382.32832492 -681.04963385 379.92161405 -678.64756775 377.51362419 C-676.30915068 375.17070216 -673.96690798 372.83162017 -671.625 370.4921875 C-670.77591064 369.64107391 -669.92682129 368.78996033 -669.05200195 367.91305542 C-664.70550627 363.58350271 -660.2934741 359.40020795 -655.63134766 355.41116333 C-653.65301578 353.69984852 -651.81644187 351.88131479 -650 350 C-646.89286078 346.85079119 -643.67509696 343.92023033 -640.3203125 341.0390625 C-637.95943988 338.96435626 -635.66030551 336.83488822 -633.36352539 334.68994141 C-627.95907936 329.64369246 -622.44858434 324.84277642 -616.6796875 320.2109375 C-613.86746685 317.8906505 -611.18202737 315.46928866 -608.5 313 C-603.68809567 308.58118081 -598.71730367 304.42766238 -593.6328125 300.328125 C-591.78569216 298.82568262 -589.95472155 297.30483137 -588.125 295.78125 C-579.66592736 288.74535584 -571.08430849 281.922633 -562.3125 275.28125 C-558.61762916 272.48149359 -554.96443825 269.63184702 -551.31811523 266.76928711 C-542.44817704 259.81177633 -533.40339462 253.14356982 -524.22802734 246.59570312 C-522.03689036 245.02642071 -519.85482789 243.44539309 -517.67578125 241.859375 C-499.12255696 228.35889923 -480.21376889 215.41538177 -461.125 202.6875 C-459.89337631 201.86591904 -459.89337631 201.86591904 -458.63687134 201.02774048 C-443.84305132 191.1658716 -429.03374423 181.31922942 -413.8125 172.125 C-412.36496338 171.24811523 -412.36496338 171.24811523 -410.88818359 170.35351562 C-407.9283156 168.56420873 -404.96504408 166.7807148 -402 165 C-400.62835693 164.17580566 -400.62835693 164.17580566 -399.22900391 163.33496094 C-385.59185899 155.16102978 -371.78196442 147.31915158 -357.88134766 139.60302734 C-355.24312919 138.13526405 -352.61056907 136.658028 -349.98046875 135.17578125 C-348.46615017 134.32551311 -346.95182755 133.47525216 -345.4375 132.625 C-344.8094043 132.26897705 -344.18130859 131.9129541 -343.53417969 131.54614258 C-337.60239738 128.22976454 -331.51174077 125.23269578 -325.42797852 122.20849609 C-321.69754847 120.3524706 -317.98012979 118.47190762 -314.26637268 116.58277893 C-292.82523692 105.67771384 -271.22791987 95.35572774 -249.15136719 85.80224609 C-245.20825533 84.09452619 -241.27907966 82.35649172 -237.3515625 80.61328125 C-218.14190811 72.11349991 -198.64457024 64.43129479 -179 57 C-178.35049377 56.75399048 -177.70098755 56.50798096 -177.03179932 56.2545166 C-130.84062062 38.78113034 -83.6904929 23.75453517 -36.53930664 9.10668945 C-33.4138822 8.12941491 -30.29456734 7.13586154 -27.17747498 6.13249207 C-24.0372327 5.12294793 -20.89312295 4.12553338 -17.75 3.125 C-17.11078613 2.91713867 -16.47157227 2.70927734 -15.81298828 2.49511719 C-13.93569347 1.88562435 -12.0538357 1.29024212 -10.171875 0.6953125 C-9.0797168 0.34484863 -7.98755859 -0.00561523 -6.86230469 -0.36669922 C-4.05186851 -0.9885238 -2.65528294 -0.99673507 0 0 Z " fill="#0C293C" transform="translate(1596,666)"/>
<path d="M0 0 C10.77002549 -0.0462965 21.54002738 -0.08185553 32.31013203 -0.10362434 C37.31087567 -0.11407113 42.31155134 -0.12824667 47.31225586 -0.15087891 C52.13626462 -0.17257535 56.96020792 -0.18456188 61.7842617 -0.18975449 C63.62670103 -0.193456 65.4691367 -0.20068392 67.31154823 -0.21146011 C69.88787262 -0.22593254 72.46392485 -0.22797973 75.0402832 -0.22705078 C76.18827141 -0.23783661 76.18827141 -0.23783661 77.35945129 -0.24884033 C81.1240888 -0.23410689 82.78558507 -0.14294328 86 2 C86.87397766 3.84934998 86.87397766 3.84934998 87.5871582 6.13452148 C87.99953484 7.42766518 87.99953484 7.42766518 88.42024231 8.74693298 C88.71082016 9.69540604 89.00139801 10.64387909 89.30078125 11.62109375 C89.6184697 12.62608414 89.93615814 13.63107452 90.26347351 14.66651917 C91.28992057 17.92043668 92.3017579 21.17867379 93.3125 24.4375 C94.61730668 28.60405661 95.92770346 32.76884925 97.23828125 36.93359375 C97.5953717 38.07016922 97.95246216 39.20674469 98.32037354 40.37776184 C109.73712275 76.62589507 121.84021566 112.65481971 133.87719727 148.70025635 C135.95959867 154.93717283 138.04028045 161.17466291 140.12109375 167.41210938 C143.30420035 176.95323362 146.488168 186.49406999 149.67285156 196.03466797 C153.51124195 207.53390501 157.34661419 219.03414583 161.1796875 230.53515625 C161.56263159 231.68416318 161.56263159 231.68416318 161.95331192 232.85638237 C163.30234774 236.90420834 164.65124901 240.95207912 166 245 C166.66 245 167.32 245 168 245 C173.16265005 228.9702359 178.30270456 212.93331904 183.43237305 196.89297485 C190.50436459 174.77925926 197.59881848 152.67283869 204.70874023 130.57128906 C210.46615599 112.67267408 216.19801541 94.76596327 221.9226532 76.85684204 C222.24337296 75.85349823 222.56409271 74.85015442 222.89453125 73.81640625 C223.37397942 72.31646622 223.37397942 72.31646622 223.8631134 70.78622437 C227.25029199 60.19078922 230.64273252 49.59704204 234.03747559 39.00402832 C234.95414033 36.14312752 235.87018724 33.28202955 236.78613281 30.42089844 C238.09626858 26.32970981 239.40961722 22.23956808 240.72592163 18.15036011 C241.19771107 16.68319351 241.66844658 15.21568755 242.13809204 13.74783325 C242.77538617 11.75673167 243.41643754 9.76688158 244.05859375 7.77734375 C244.58924438 6.12593384 244.58924438 6.12593384 245.13061523 4.44116211 C246 2 246 2 247 1 C249.06959602 0.87951825 251.14333194 0.82974114 253.21630859 0.80712891 C254.18953316 0.79486267 254.18953316 0.79486267 255.18241882 0.78234863 C257.33774886 0.75745798 259.49301293 0.74097004 261.6484375 0.7265625 C262.38295765 0.72123882 263.1174778 0.71591515 263.87425613 0.71043015 C267.76153776 0.68368335 271.64878709 0.66431292 275.53613281 0.64990234 C279.55722191 0.63324472 283.57749288 0.58846356 287.59827232 0.5375309 C290.68489554 0.50392064 293.77132308 0.4923319 296.85811234 0.48667526 C298.34055463 0.47994602 299.8229833 0.46468041 301.30524826 0.44078445 C303.37914971 0.40925691 305.45082545 0.40907516 307.52490234 0.41650391 C308.70547211 0.40841705 309.88604187 0.4003302 311.10238647 0.39199829 C314 1 314 1 315.48507309 2.98040104 C317.42963642 6.85636454 318.78307087 10.80763474 320.13644409 14.92158508 C320.43766241 15.82111678 320.73888073 16.72064847 321.04922688 17.6474387 C322.05659851 20.66062774 323.05536953 23.67659661 324.05419922 26.69262695 C324.77507283 28.85473895 325.49647057 31.01667625 326.21835327 33.17845154 C328.17843588 39.05327397 330.13104921 44.9305547 332.08227682 50.80832314 C334.12845758 56.96816746 336.18120894 63.12582147 338.23318481 69.28373718 C341.68205905 79.63681204 345.12652776 89.99134343 348.56787109 100.34692383 C352.09882529 110.97213143 355.63308638 121.59623054 359.17138672 132.21899414 C359.49752045 133.19812357 359.49752045 133.19812357 359.83024274 134.19703338 C360.70452829 136.82181934 361.578819 139.44660359 362.45312094 142.07138409 C366.04032648 152.84102578 369.62476267 163.61158934 373.2088685 174.38226295 C374.02218053 176.82623708 374.83558163 179.27018158 375.64907217 181.71409631 C377.97298783 188.69569847 380.2954714 195.67777351 382.61563492 202.66062355 C383.31611632 204.76813466 384.0170738 206.87548762 384.71856689 208.9826622 C387.85022243 218.39077968 390.97269464 227.80116965 393.95706177 237.25724792 C394.16760063 237.91904188 394.37813949 238.58083584 394.59505832 239.26268417 C396 243.76095305 396 243.76095305 396 246 C396.66 246 397.32 246 398 246 C398.1249585 244.97624268 398.24991699 243.95248535 398.37866211 242.89770508 C398.95401578 239.28846288 399.79591242 236.09980931 400.94140625 232.63671875 C401.35100586 231.38616699 401.76060547 230.13561523 402.18261719 228.84716797 C402.40542358 228.1757074 402.62822998 227.50424683 402.85778809 226.81243896 C403.8524669 223.8131541 404.8331186 220.80932928 405.81484985 217.80578613 C406.35507654 216.15316284 406.89592668 214.50074324 407.43734741 212.84851074 C410.42772121 203.71652338 413.35570627 194.56477998 416.27993774 185.41143799 C417.26502573 182.32796725 418.25095598 179.24476686 419.23706055 176.16162109 C423.17244848 163.85540027 427.10276055 151.54755859 431.03276062 139.23961639 C431.79202403 136.86181909 432.55133807 134.48403797 433.31066895 132.10626221 C433.82006891 130.51110858 434.32946833 128.91595477 434.83886719 127.32080078 C435.21785912 126.13401985 435.21785912 126.13401985 435.60450745 124.92326355 C437.08521064 120.28637991 438.56541398 115.64933709 440.04523468 111.01217175 C441.21468446 107.34784077 442.38455015 103.68364271 443.5546875 100.01953125 C443.78353638 99.30292265 444.01238525 98.58631405 444.24816895 97.84799004 C447.74058808 86.91474983 451.25817441 75.98980218 454.78834152 65.06869888 C457.68998729 56.09001569 460.56099597 47.10217128 463.40625 38.10546875 C464.43076422 34.87321952 465.45560241 31.64107314 466.48046875 28.40893555 C467.1763965 26.20999716 467.87031996 24.0104237 468.5625 21.81030273 C469.588113 18.55270886 470.62141242 15.29764204 471.65625 12.04296875 C471.96453735 11.05685104 472.27282471 10.07073334 472.5904541 9.05473328 C472.87835815 8.15390518 473.16626221 7.25307709 473.46289062 6.32495117 C473.71252563 5.53465012 473.96216064 4.74434906 474.21936035 3.93009949 C475 2 475 2 477 0 C479.57905273 -0.19835567 482.05071831 -0.27277102 484.63085938 -0.25878906 C485.41797806 -0.2622937 486.20509674 -0.26579834 487.0160675 -0.26940918 C489.62538396 -0.27823243 492.23443065 -0.27237532 494.84375 -0.265625 C496.65214083 -0.26697148 498.46053131 -0.26891187 500.2689209 -0.27142334 C504.06196534 -0.2743754 507.8549157 -0.27007433 511.64794922 -0.26074219 C516.51740762 -0.2493476 521.38664558 -0.25590663 526.25609589 -0.26788712 C529.99120758 -0.2751035 533.72626675 -0.27281881 537.46138 -0.26763153 C539.25718715 -0.26629442 541.05299902 -0.26794489 542.84880066 -0.27259064 C545.35570974 -0.27765226 547.86225848 -0.26995093 550.36914062 -0.25878906 C551.1162178 -0.26283752 551.86329498 -0.26688599 552.63301086 -0.27105713 C557.77147131 -0.22852869 557.77147131 -0.22852869 560 2 C559.56794098 6.36315271 557.87979179 10.45587073 556.41015625 14.5625 C556.1502742 15.29765839 555.89039215 16.03281677 555.62263489 16.79025269 C555.063578 18.37075446 554.50301754 19.95072504 553.94110107 21.5302124 C552.44752922 25.72871086 550.96472322 29.93101316 549.48046875 34.1328125 C549.18186951 34.97715851 548.88327026 35.82150452 548.57562256 36.69143677 C545.96780667 44.07208655 543.41329257 51.47013424 540.875 58.875 C537.25228832 69.42821238 533.54687807 79.94951368 529.80169678 90.45965576 C526.4788701 99.78773118 523.21393028 109.1336889 520 118.5 C516.33602738 129.17786305 512.59167457 139.82427221 508.80224609 150.45800781 C505.05802783 160.96910688 501.39851867 171.50719646 497.77832031 182.06176758 C494.43182275 191.79805855 490.99159083 201.49910793 487.53372192 211.19619751 C484.68827125 219.1805736 481.90474537 227.17822496 479.26757812 235.23388672 C477.04604447 241.96888839 474.6472252 248.63835536 472.25 255.3125 C468.87611739 264.70874419 465.5544746 274.11991407 462.3125 283.5625 C457.994664 296.13775856 453.63037456 308.69639386 449.25 321.25 C448.93366608 322.15702667 448.61733215 323.06405334 448.29141235 323.99856567 C446.77470686 328.34709254 445.25587719 332.69484867 443.73242188 337.04101562 C442.57031111 340.35849144 441.42199969 343.680312 440.28320312 347.00585938 C440.0111908 347.79353699 439.73917847 348.5812146 439.45892334 349.39276123 C438.94798268 350.87232967 438.44141394 352.3534178 437.94000244 353.83624268 C436.92257747 356.76704481 436.22342227 358.77657773 434 361 C430.95016479 361.24050903 430.95016479 361.24050903 426.97998047 361.22705078 C426.25792419 361.22734283 425.53586792 361.22763489 424.79193115 361.22793579 C422.40022858 361.22654008 420.00883579 361.21096783 417.6171875 361.1953125 C415.9609494 361.19158322 414.30470911 361.18873585 412.64846802 361.18673706 C408.2852776 361.17909389 403.92221993 361.1594396 399.55908203 361.1373291 C395.10841671 361.11688535 390.65772997 361.1077385 386.20703125 361.09765625 C377.47129319 361.07619429 368.7356631 361.04205018 360 361 C356.4306524 352.52349774 353.52315421 343.84688333 350.62744141 335.12524414 C350.09810222 333.53830172 349.56850295 331.95144603 349.03866577 330.3646698 C347.60551151 326.07003432 346.17609424 321.77416366 344.747437 317.47803044 C343.23453034 312.93044336 341.71840981 308.38392782 340.20272827 303.83726501 C337.64694016 296.16896458 335.09346987 288.49989549 332.54150391 280.83032227 C329.63143971 272.08458842 326.71835337 263.33986634 323.80340445 254.59575945 C320.66006431 245.16642804 317.51904178 235.73632568 314.37863874 226.30601573 C313.49570472 223.65512812 312.61236992 221.00437439 311.72893143 218.35365486 C304.64936052 197.10876097 297.64148285 175.84199001 290.73137856 154.54131413 C287.5311867 144.67927933 284.29840205 134.82968197 281 125 C280.34 125 279.68 125 279 125 C275.32836234 135.9912634 271.65856276 146.98313885 267.99082756 157.97570515 C266.28589046 163.08539841 264.58042447 168.19491359 262.87353516 173.30395508 C255.88514905 194.22279206 248.92636802 215.14969619 242.12109375 236.12890625 C234.68627621 259.04681468 227.09215954 281.91106431 219.47241211 304.76806641 C217.53046799 310.59379449 215.59275366 316.42092102 213.65590954 322.24834633 C212.1473 326.78522016 210.63600916 331.3211973 209.12392616 335.85691452 C208.40646358 338.01048087 207.68997192 340.16437094 206.97447777 342.31859207 C205.98995517 345.28186567 205.00170722 348.24387027 204.01245117 351.20556641 C203.72011597 352.08819153 203.42778076 352.97081665 203.12658691 353.88018799 C201.11418045 359.88581955 201.11418045 359.88581955 200 361 C197.69946165 361.09443335 195.39597827 361.11742128 193.09350586 361.11352539 C192.37159561 361.11367142 191.64968536 361.11381744 190.90589905 361.1139679 C188.50885053 361.11326869 186.11187877 361.10547595 183.71484375 361.09765625 C182.05717511 361.0957921 180.39950593 361.09436818 178.74183655 361.09336853 C174.37045786 361.08954312 169.99911219 361.07971265 165.62774658 361.06866455 C161.17045539 361.05845092 156.71315889 361.05387101 152.25585938 361.04882812 C143.50389107 361.0380904 134.75194964 361.02101371 126 361 C120.63065244 350.51395654 120.63065244 350.51395654 119.02734375 345.68359375 C118.69541016 344.70116699 118.36347656 343.71874023 118.02148438 342.70654297 C117.66376953 341.62775879 117.30605469 340.54897461 116.9375 339.4375 C116.07353761 336.88604627 115.20772356 334.33527549 114.33984375 331.78515625 C114.09527435 331.06465088 113.85070496 330.34414551 113.59872437 329.60180664 C109.90831821 318.75299062 106.10724773 307.94238761 102.31546021 297.12869263 C101.03602517 293.47779855 99.75997911 289.82573275 98.48413086 286.17358398 C93.91761665 273.13055967 89.25155272 260.13196467 84.39294434 247.19454956 C81.7900012 240.240789 79.36531292 233.24610844 77.0625 226.1875 C74.10152464 217.15713671 70.92605176 208.22404622 67.625 199.3125 C64.14518944 189.90970226 60.74300026 180.48782054 57.5 171 C52.59457998 156.6615525 47.58853432 142.35908298 42.5625 128.0625 C42.14616302 126.87791199 41.72982605 125.69332397 41.3008728 124.47283936 C36.14548479 109.8142454 30.91701343 95.18907243 25.51245117 80.62060547 C22.47282097 72.3927549 19.65216538 64.10801338 16.91967773 55.77368164 C14.52436752 48.4918156 11.9836383 41.27055085 9.375 34.0625 C8.99923828 33.02085693 8.62347656 31.97921387 8.23632812 30.90600586 C6.53594862 26.20269339 4.81925548 21.50677395 3.0625 16.82421875 C2.77455566 16.04361084 2.48661133 15.26300293 2.18994141 14.45874023 C1.66611947 13.03902271 1.13270702 11.62278714 0.58740234 10.21118164 C-0.83613545 6.32041374 -0.96596491 3.98089488 0 0 Z " fill="#0C293C" transform="translate(1384,1419)"/>
<path d="M0 0 C2.52275838 0.36749636 3.70472673 0.65766465 5.39697266 2.61962891 C6.02418213 3.66256104 6.02418213 3.66256104 6.6640625 4.7265625 C7.14109619 5.50338379 7.61812988 6.28020508 8.10961914 7.08056641 C8.60969482 7.92022949 9.10977051 8.75989258 9.625 9.625 C10.69762504 11.37597728 11.77186352 13.12596715 12.84765625 14.875 C13.3802002 15.74640625 13.91274414 16.6178125 14.46142578 17.515625 C16.58236972 20.94036723 18.80721369 24.28777657 21.0625 27.625 C24.48752483 32.71862667 27.86052441 37.8417619 31.1875 43 C35.56329109 49.78400783 39.96239141 56.5523769 44.375 63.3125 C49.09021021 70.53721749 53.80048273 77.76506416 58.5 85 C65.65218677 96.00944721 72.82589629 107.00482678 80 118 C87.70455959 129.80816038 95.40570175 141.61845715 103.08642578 153.44213867 C107.21712587 159.79943601 111.35722627 166.15056516 115.5 172.5 C120.1732192 179.66242372 124.84116815 186.82820946 129.5 194 C136.65222625 205.00942165 143.82589622 216.00482667 151 227 C158.70455959 238.80816038 166.40570175 250.61845715 174.08642578 262.44213867 C177.58193422 267.82185302 181.08314164 273.19781281 184.58935547 278.57055664 C185.85533436 280.51158407 187.11999986 282.4534688 188.38330078 284.39624023 C191.49600476 289.18043138 194.62803682 293.94939001 197.8046875 298.69140625 C198.40603516 299.59632813 199.00738281 300.50125 199.62695312 301.43359375 C200.76053109 303.13839369 201.90200656 304.83797881 203.05273438 306.53125 C205.80203202 310.68496594 207.68903138 313.88538449 208 319 C201.73628436 321.14739776 195.43468459 323.07705661 189.0625 324.875 C188.14500977 325.13547119 187.22751953 325.39594238 186.28222656 325.66430664 C179.14831798 327.68574513 172.0056892 329.67528799 164.859375 331.65234375 C159.06933195 333.25542242 153.28487139 334.87837777 147.5 336.5 C139.64207362 338.70217269 131.78387009 340.90316365 123.91748047 343.07495117 C119.43079256 344.31591735 114.9521938 345.58296461 110.4765625 346.86328125 C109.34347656 347.18554688 108.21039062 347.5078125 107.04296875 347.83984375 C104.80216891 348.47751136 102.56253527 349.11929455 100.32421875 349.765625 C98.79087891 350.20068359 98.79087891 350.20068359 97.2265625 350.64453125 C96.31471191 350.90596924 95.40286133 351.16740723 94.46337891 351.43676758 C92 352 92 352 88 352 C86.46704102 350.22192383 86.46704102 350.22192383 85.00390625 347.70703125 C84.4521875 346.77761719 83.90046875 345.84820313 83.33203125 344.890625 C82.74808594 343.87484375 82.16414063 342.8590625 81.5625 341.8125 C80.30430749 339.68304867 79.04517325 337.55415352 77.78515625 335.42578125 C77.15109863 334.34506348 76.51704102 333.2643457 75.86376953 332.15087891 C73.14607883 327.55636539 70.32689903 323.02782611 67.5 318.5 C62.95946001 311.19102357 58.46613986 303.85465432 54 296.5 C49.05255118 288.35434487 44.066707 280.23403506 39.04174805 272.13598633 C35.31328257 266.12616639 31.60140202 260.10637793 27.8984375 254.08081055 C25.85515299 250.75688599 23.80872323 247.43491585 21.76171875 244.11328125 C19.44074891 240.34646135 17.13009616 236.57379925 14.83203125 232.79296875 C13.92984927 231.32021339 13.027519 229.84754885 12.125 228.375 C11.72643799 227.71201904 11.32787598 227.04903809 10.91723633 226.3659668 C9.99898543 224.87587838 9.00750001 223.43125537 8 222 C7.34 222 6.68 222 6 222 C4.52939435 223.90275957 4.52939435 223.90275957 3.05078125 226.40625 C2.4578125 227.3653125 1.86484375 228.324375 1.25390625 229.3125 C0.61324219 230.364375 -0.02742188 231.41625 -0.6875 232.5 C-2.05580092 234.71886635 -3.42429577 236.93761313 -4.79296875 239.15625 C-5.50063217 240.30850539 -6.20815161 241.46084922 -6.91552734 242.61328125 C-10.08289017 247.75941116 -13.29187781 252.87922106 -16.5 258 C-17.75023451 259.99985341 -19.00023365 261.99985399 -20.25 264 C-27.75 276 -35.25 288 -42.75 300 C-43.67824585 301.4852417 -43.67824585 301.4852417 -44.62524414 303.00048828 C-45.87431328 304.99893384 -47.12349934 306.99730634 -48.37280273 308.99560547 C-51.51301136 314.01879335 -54.65112918 319.0432652 -57.78515625 324.0703125 C-59.04414429 326.08862061 -60.30325813 328.10685025 -61.5625 330.125 C-62.17367676 331.1049292 -62.78485352 332.0848584 -63.41455078 333.09448242 C-66.59048043 338.17739705 -69.78807884 343.2451444 -73.01953125 348.29296875 C-73.66656006 349.30407715 -74.31358887 350.31518555 -74.98022461 351.35693359 C-76.21627872 353.28499326 -77.45524059 355.2111928 -78.69750977 357.13525391 C-79.52400024 358.42375244 -79.52400024 358.42375244 -80.3671875 359.73828125 C-80.85300293 360.49149658 -81.33881836 361.24471191 -81.83935547 362.02075195 C-83.14567688 364.09185708 -83.14567688 364.09185708 -84 367 C-83.13665039 366.83846436 -82.27330078 366.67692871 -81.38378906 366.51049805 C-75.85283064 365.67606557 -70.33390627 365.81551833 -64.75 365.8125 C-63.57308594 365.80025391 -62.39617187 365.78800781 -61.18359375 365.77539062 C-45.50155037 365.74922481 -45.50155037 365.74922481 -39 369 C-39.15283203 370.80615234 -39.15283203 370.80615234 -40 373 C-42.38232422 374.58056641 -42.38232422 374.58056641 -45.5546875 376.1015625 C-47.29854736 376.9527063 -47.29854736 376.9527063 -49.07763672 377.82104492 C-50.34340702 378.42240004 -51.60919517 379.02371756 -52.875 379.625 C-54.81427799 380.56558017 -56.75104071 381.5112106 -58.68777466 382.45701599 C-59.97984741 383.08752201 -61.27271721 383.71639725 -62.56637573 384.34364319 C-67.72968418 386.84985098 -72.81576448 389.4787575 -77.875 392.1875 C-84.46575747 395.70008961 -91.11800739 399.06467832 -97.8125 402.375 C-106.04495138 406.45753901 -114.14524186 410.73395473 -122.19116211 415.171875 C-127.50740204 418.10188786 -132.84295897 420.9900923 -138.2109375 423.82421875 C-153.09896902 431.68880275 -167.76261428 439.81190673 -182.25634766 448.39013672 C-185.71994386 450.42243369 -189.21203159 452.40142944 -192.70849609 454.37646484 C-203.53719692 460.49504489 -214.17395041 466.91243871 -224.78959656 473.39044189 C-225.38754532 473.75530701 -225.98549408 474.12017212 -226.6015625 474.49609375 C-227.20446609 474.86402039 -227.80736969 475.23194702 -228.42854309 475.61102295 C-234.73339212 479.45446602 -241.06622703 483.25082342 -247.40167236 487.04354858 C-266.16492801 498.27650987 -284.85083319 509.63059731 -303.43359375 521.16015625 C-304.19913574 521.63340332 -304.96467773 522.10665039 -305.75341797 522.59423828 C-307.26701537 523.54134693 -308.77119217 524.50365944 -310.26611328 525.47998047 C-310.97364746 525.93904785 -311.68118164 526.39811523 -312.41015625 526.87109375 C-313.03156494 527.28157959 -313.65297363 527.69206543 -314.29321289 528.11499023 C-316 529 -316 529 -319 529 C-318.65132709 523.54802362 -315.36468973 520.30448158 -312.0625 516.25 C-306.02446554 508.59653736 -301.04833205 500.69443338 -296.265625 492.21875 C-294.05186171 488.33783164 -291.74235767 484.51478291 -289.4375 480.6875 C-288.94975098 479.87539063 -288.46200195 479.06328125 -287.95947266 478.2265625 C-282.69510611 469.47091463 -277.38487491 460.74303744 -272.07910156 452.01245117 C-267.02333572 443.69230313 -261.99535027 435.35654214 -257 427 C-250.30820727 415.81057296 -243.58075525 404.64334489 -236.8125 393.5 C-236.45373779 392.90916626 -236.09497559 392.31833252 -235.7253418 391.70959473 C-232.08582761 385.71612751 -228.44357226 379.72436724 -224.78990173 373.73951721 C-216.78896937 360.63202846 -208.89962835 347.46993912 -201.16595459 334.20281982 C-196.26529094 325.80037236 -191.25175208 317.4816476 -186.09057617 309.23608398 C-181.12452835 301.27160999 -176.34108228 293.20269349 -171.5625 285.125 C-163.80833623 272.02102739 -155.94438259 258.98970186 -148 246 C-145.22523395 241.46072158 -142.45353003 236.91960565 -139.6875 232.375 C-139.33137634 231.78988647 -138.97525269 231.20477295 -138.6083374 230.60192871 C-133.1474576 221.62055508 -127.79583611 212.57951324 -122.5 203.5 C-116.91636377 193.92761654 -111.26255601 184.40335103 -105.5 174.9375 C-105.14871033 174.36044312 -104.79742065 173.78338623 -104.43548584 173.18884277 C-102.31128242 169.70114109 -100.18407342 166.21527922 -98.05603027 162.72991943 C-94.90780997 157.57271171 -91.76445137 152.41255013 -88.625 147.25 C-88.27759766 146.67885468 -87.93019531 146.10770935 -87.57226562 145.51925659 C-81.40627056 135.37574593 -75.33901467 125.17517809 -69.2925415 114.96008301 C-63.41334244 105.02961863 -57.46565015 95.14422471 -51.45800781 85.29101562 C-45.73547847 75.90157084 -40.10083452 66.4624812 -34.5 57 C-28.32579548 46.57039412 -22.10804685 36.16936966 -15.8125 25.8125 C-15.1421875 24.70970703 -14.471875 23.60691406 -13.78125 22.47070312 C-9.21139726 14.96570448 -4.61089468 7.47982798 0 0 Z " fill="#0C293C" transform="translate(1387,308)"/>
<path d="M0 0 C12.4304278 -0.09265972 24.8607735 -0.16374477 37.29147625 -0.20724869 C43.06350079 -0.22812789 48.83528914 -0.25645208 54.60717773 -0.30175781 C60.17685583 -0.34520297 65.74630667 -0.3691346 71.31614113 -0.37950897 C73.44164419 -0.38690267 75.56713475 -0.40134075 77.69254112 -0.42292023 C80.66859236 -0.45193605 83.64370323 -0.4559567 86.61987305 -0.45410156 C87.93941483 -0.47567322 87.93941483 -0.47567322 89.28561401 -0.49768066 C93.33640913 -0.47033834 95.44633872 -0.34789234 98.94758606 1.85211182 C101.41606222 4.43541662 103.4934123 7.18082905 105.5 10.125 C106.37818091 11.38331902 107.25712528 12.64110548 108.13671875 13.8984375 C108.59997559 14.56456055 109.06323242 15.23068359 109.54052734 15.91699219 C112.09091623 19.55699185 114.70452679 23.15115314 117.3125 26.75 C118.42331162 28.28636107 119.53398743 29.82282034 120.64453125 31.359375 C121.19963379 32.12701172 121.75473633 32.89464844 122.32666016 33.68554688 C125.05263139 37.45593019 127.77621534 41.22803694 130.5 45 C131.58332144 46.50000859 132.66665479 48.00000858 133.75 49.5 C153.25 76.5 153.25 76.5 154.87646484 78.75219727 C155.95470125 80.24502772 157.03315015 81.73770472 158.11181641 83.23022461 C160.89993742 87.08865697 163.68378628 90.95006911 166.4609375 94.81640625 C169.16895434 98.58511745 171.88886317 102.34490996 174.61962891 106.09716797 C175.83184858 107.76820443 177.03213638 109.44788308 178.23046875 111.12890625 C178.83503906 111.95261719 179.43960938 112.77632812 180.0625 113.625 C180.54847656 114.29789063 181.03445313 114.97078125 181.53515625 115.6640625 C183.16215487 117.44923252 183.16215487 117.44923252 187 117 C187.27602051 116.42217773 187.55204102 115.84435547 187.83642578 115.24902344 C189.84484132 111.36704191 192.40339309 107.84851089 194.875 104.25 C195.74402954 102.9818042 195.74402954 102.9818042 196.63061523 101.68798828 C200.79527259 95.65141572 205.11437411 89.7552077 209.55053711 83.91650391 C213.63575363 78.52806513 217.54924765 73.03254736 221.42993164 67.49560547 C225.07546432 62.29751032 228.77318427 57.14009163 232.5 52 C236.70704615 46.19446371 240.87561803 40.36454709 245 34.5 C249.26719528 28.44072471 253.55381371 22.39591897 257.875 16.375 C258.39835937 15.64087891 258.92171875 14.90675781 259.4609375 14.15039062 C268.32549094 1.83725453 268.32549094 1.83725453 272 0 C274.95985156 -0.09344316 277.89602676 -0.12573235 280.85595703 -0.11352539 C281.77308472 -0.11367142 282.6902124 -0.11381744 283.63513184 -0.1139679 C286.67604919 -0.11326948 289.7169058 -0.1054804 292.7578125 -0.09765625 C294.86245693 -0.09579182 296.9671018 -0.09436803 299.07174683 -0.09336853 C304.61856275 -0.08954535 310.1653526 -0.07971674 315.7121582 -0.06866455 C321.3692998 -0.05844616 327.02644559 -0.05386999 332.68359375 -0.04882812 C343.78907397 -0.03809431 354.89453482 -0.02102026 366 0 C366.66 1.32 367.32 2.64 368 4 C360.6469627 13.58944496 353.23868533 23.13505197 345.81445312 32.66943359 C342.87486662 36.44517266 339.93752285 40.22265535 337 44 C335.83334461 45.50000877 334.66667793 47.00000876 333.5 48.5 C332.9225 49.2425 332.345 49.985 331.75 50.75 C298.5 93.5 298.5 93.5 296.74902344 95.7512207 C295.58556688 97.24711662 294.42215522 98.74304745 293.25878906 100.23901367 C290.29338002 104.05209776 287.32712738 107.86452064 284.359375 111.67578125 C279.22405297 118.27201386 274.0912807 124.86968837 269 131.5 C262.70570332 139.69698441 256.34978577 147.84597629 250 156 C247.43707132 159.29133322 244.87464972 162.58306038 242.3125 165.875 C241.72436523 166.62998779 241.13623047 167.38497559 240.53027344 168.1628418 C239.98016602 168.86965088 239.43005859 169.57645996 238.86328125 170.3046875 C238.38157471 170.92327637 237.89986816 171.54186523 237.40356445 172.17919922 C236.94038818 172.78006348 236.47721191 173.38092773 236 174 C235.16891724 175.03012207 235.16891724 175.03012207 234.32104492 176.08105469 C232.77332982 177.94097668 232.77332982 177.94097668 233 180.3984375 C234.31640816 183.8231556 236.46870933 186.05938818 239 188.625 C240.01016091 189.68657235 241.01793587 190.75041968 242.0234375 191.81640625 C242.77898926 192.61522217 242.77898926 192.61522217 243.54980469 193.43017578 C247.24853963 197.43402522 250.58925245 201.75195703 254 206 C255.41495953 207.73056388 256.83166079 209.45970496 258.25 211.1875 C259.83356495 213.1248107 261.41687303 215.06233138 263 217 C263.4954834 217.60505371 263.9909668 218.21010742 264.50146484 218.83349609 C270.90479305 226.6558876 277.23136261 234.5170357 283.36328125 242.5546875 C285.84265918 245.80405267 288.35423555 249.02765479 290.86889648 252.24975586 C298.64429993 262.21303872 306.31324802 272.25489451 313.95898438 282.31787109 C315.99436619 284.99259653 318.03532175 287.66297072 320.078125 290.33203125 C327.09089628 299.50063039 334.02324618 308.7174983 340.84106445 318.03198242 C345.47550342 324.34072248 350.25278971 330.52897505 355.07788086 336.69262695 C359.80533774 342.73262929 364.42712797 348.84226945 369 355 C369.59425781 355.70382812 370.18851563 356.40765625 370.80078125 357.1328125 C371.19652344 357.74898437 371.59226562 358.36515625 372 359 C371.67 359.99 371.34 360.98 371 362 C358.62164784 362.20877817 346.24371626 362.36857036 333.86396027 362.46630955 C328.11505325 362.51322688 322.36735306 362.57683415 316.61914062 362.67895508 C311.06880386 362.77694048 305.51962569 362.83059867 299.9684906 362.85389519 C297.85369123 362.87049054 295.73895341 362.90289969 293.62464905 362.95157051 C277.07717366 363.31724626 277.07717366 363.31724626 272.00222778 360.09895325 C269.94119024 357.82159154 268.49190624 355.67410454 267 353 C265.82784047 351.44593661 264.63961859 349.90374649 263.4296875 348.37890625 C262.2411573 346.77612616 261.05636579 345.17056807 259.875 343.5625 C254.86751696 336.81344846 249.80318346 330.11908159 244.625 323.5 C240.19307917 317.82942658 235.81493524 312.12769083 231.515625 306.35546875 C228.1704869 301.87707407 224.7674167 297.44260349 221.375 293 C215.38271406 285.15108775 209.44236062 277.26556383 203.53833008 269.35009766 C198.53854935 262.66728182 193.41858857 256.08274591 188.21435547 249.55786133 C187.66021973 248.85556396 187.10608398 248.1532666 186.53515625 247.4296875 C185.79857788 246.50518799 185.79857788 246.50518799 185.04711914 245.56201172 C184 244 184 244 184 242 C179.4143963 246.28220837 175.78392012 251.08711965 172.0625 256.125 C171.40499756 257.00808838 170.74749512 257.89117676 170.07006836 258.80102539 C165.13357972 265.43995533 160.2380547 272.109126 155.34423828 278.77954102 C150.94419517 284.76071478 146.45357512 290.66862101 141.9375 296.5625 C136.48037509 303.68612136 131.15664178 310.88561589 125.93774414 318.18505859 C121.03740897 325.01098337 115.94650855 331.68463079 110.83154297 338.35058594 C106.21187764 344.37878193 101.68074722 350.46213224 97.27294922 356.6472168 C94.21271212 360.89364394 94.21271212 360.89364394 92 362 C88.94859627 362.09353676 85.9201439 362.12571763 82.86865234 362.11352539 C81.92226395 362.11367142 80.97587555 362.11381744 80.00080872 362.1139679 C76.86249525 362.11326942 73.72424063 362.10548002 70.5859375 362.09765625 C68.41403231 362.09579184 66.24212671 362.09436805 64.07022095 362.09336853 C58.34585413 362.08954516 52.62151258 362.07971639 46.89715576 362.06866455 C41.05904482 362.05844657 35.2209298 362.05387008 29.3828125 362.04882812 C17.92186389 362.03809398 6.46093404 362.0210197 -5 362 C-4.28617489 357.73973817 -3.50989883 356.12918072 -0.25 353.25 C10.16401384 343.26441078 18.15232714 330.93672717 26.18774414 319.02905273 C30.18654316 313.12232605 34.37284778 307.39241256 38.68725586 301.71337891 C41.912189 297.46585383 45.04782668 293.16809787 48.125 288.8125 C54.31657584 280.0813245 60.82445635 271.62662933 67.62011719 263.35913086 C77.77377008 250.99862501 87.14974955 238.10686396 96.3125 225 C102.25535873 216.51655707 108.74663775 208.61387272 115.49536133 200.76245117 C117.5295504 198.39361439 119.55649896 196.01861778 121.58398438 193.64404297 C122.90043727 192.11559577 124.23845729 190.60579732 125.578125 189.09765625 C126.31546875 188.24042969 127.0528125 187.38320312 127.8125 186.5 C128.45832031 185.7678125 129.10414063 185.035625 129.76953125 184.28125 C131.2208995 182.01364704 131.2208995 182.01364704 131.03125 179.1484375 C129.67851828 175.01850658 127.48948229 172.39165452 124.6875 169.125 C123.57987335 167.78824342 122.4744676 166.44964404 121.37109375 165.109375 C120.52393799 164.08553711 120.52393799 164.08553711 119.65966797 163.04101562 C117.09590417 159.88816694 114.66994566 156.63878599 112.25 153.375 C107.6053548 147.13337301 102.91084032 140.93230247 98.1875 134.75 C92.8786967 127.79871848 87.6089788 120.82026916 82.375 113.8125 C77.01701369 106.64231555 71.56685111 99.55185885 66.05371094 92.50048828 C61.86003171 87.12874275 57.74715301 81.70250713 53.67236328 76.24023438 C49.54751981 70.71518986 45.37252876 65.22955887 41.1875 59.75 C35.1608505 51.85696347 29.18517193 43.92756015 23.23657227 35.97558594 C19.73010113 31.29280762 16.19982464 26.63078155 12.625 22 C11.85800781 21.00097656 11.09101562 20.00195312 10.30078125 18.97265625 C8.66734082 16.86221794 7.02018653 14.7688974 5.35546875 12.68359375 C4.50758839 11.6017381 3.65992435 10.51971288 2.8125 9.4375 C2.05582031 8.48746094 1.29914062 7.53742188 0.51953125 6.55859375 C-1 4 -1 4 -0.5949707 1.84008789 C-0.39863037 1.23285889 -0.20229004 0.62562988 0 0 Z " fill="#0C293C" transform="translate(678,1419)"/>
<path d="M0 0 C28.05 0 56.1 0 85 0 C91.10655851 11.60246117 97.17385229 23.19469928 103.02734375 34.921875 C103.74887259 36.36425443 104.47051983 37.80657464 105.192276 39.24884033 C106.6883166 42.23946721 108.18295057 45.23079134 109.67651367 48.22265625 C111.5539154 51.98313804 113.43492243 55.74180294 115.31690788 59.49999237 C128.38552216 85.60339565 128.38552216 85.60339565 134.34765625 98.203125 C139.16350687 108.37318627 144.17946046 118.43941223 149.21875 128.5 C149.63295763 129.32698647 150.04716526 130.15397293 150.47392464 131.00601959 C153.47977737 137.00543827 156.48950466 143.00290995 159.5 149 C162.92964068 155.83205308 166.35773782 162.66487352 169.78125 169.5 C170.40367081 170.74256058 170.40367081 170.74256058 171.03866577 172.01022339 C176.0481403 182.01724541 180.98069513 192.05207602 185.76379395 202.16967773 C190.05136422 211.1960986 194.5244692 220.12827607 199 229.0625 C199.60516197 230.27066376 199.60516197 230.27066376 200.22254944 231.50323486 C203.14552467 237.33691658 206.07237155 243.16865243 209 249 C212.33589681 255.64455003 215.67017842 262.28990302 219 268.9375 C219.40177649 269.73946997 219.80355297 270.54143993 220.2175045 271.36771202 C225.31484016 281.54889565 230.32859351 291.76225517 235.19929504 302.05427551 C238.40413793 308.80902613 241.73112283 315.49640292 245.10546875 322.16796875 C245.60805206 323.16289337 246.11063538 324.15781799 246.62844849 325.18289185 C248.67319353 329.22725453 250.72022679 333.27038753 252.77758789 337.30834961 C254.31071741 340.32048708 255.83386811 343.33749488 257.35546875 346.35546875 C257.82405807 347.2688652 258.2926474 348.18226166 258.7754364 349.12333679 C259.20040909 349.96975235 259.62538177 350.81616791 260.06323242 351.68823242 C260.4386467 352.42716232 260.81406097 353.16609222 261.20085144 353.92741394 C262 356 262 356 262 360 C232.3 360 202.6 360 172 360 C160.47181955 338.09645714 160.47181955 338.09645714 156.53515625 330.203125 C156.0903038 329.31437683 155.64545135 328.42562866 155.18711853 327.50994873 C154.26984411 325.67606717 153.35353635 323.84170178 152.43823242 322.00683594 C151.04192243 319.20876452 149.64124939 316.41290556 148.24023438 313.6171875 C147.3382846 311.81262846 146.43658243 310.00794565 145.53515625 308.203125 C145.12266129 307.3801593 144.71016632 306.5571936 144.28517151 305.70928955 C143.89723923 304.93027283 143.50930695 304.1512561 143.10961914 303.34863281 C142.60526085 302.33872284 142.60526085 302.33872284 142.0907135 301.30841064 C140.6428167 298.24404921 139.33507358 295.1151717 138 292 C96.09 291.67 54.18 291.34 11 291 C10 288 10 288 11.02539062 285.8371582 C11.56357422 285.00015381 12.10175781 284.16314941 12.65625 283.30078125 C13.25953125 282.35025879 13.8628125 281.39973633 14.484375 280.42041016 C15.14953125 279.3947998 15.8146875 278.36918945 16.5 277.3125 C17.8858076 275.13957219 19.27121252 272.96638752 20.65625 270.79296875 C21.38148132 269.66192796 22.10674193 268.53090595 22.83203125 267.39990234 C24.94747167 264.09257277 27.0245287 260.7622505 29.09375 257.42578125 C29.74923828 256.3689917 30.40472656 255.31220215 31.08007812 254.22338867 C32.32455117 252.21504592 33.56809879 250.20612931 34.81054688 248.1965332 C35.38869141 247.26800537 35.96683594 246.33947754 36.5625 245.3828125 C37.05878906 244.58246582 37.55507812 243.78211914 38.06640625 242.95751953 C38.70449219 241.98153809 39.34257812 241.00555664 40 240 C40.61446739 238.74901016 40.61446739 238.74901016 41.24134827 237.4727478 C42.92061559 234.45339608 44.40929435 232.29911743 47 230 C52.04616799 228.61245541 56.94733063 228.82987425 62.12109375 229.0234375 C63.59077625 229.04211215 65.06052143 229.05633575 66.5302887 229.0663147 C70.38055313 229.10432034 74.22698481 229.20237007 78.07574463 229.31335449 C82.01025537 229.41605137 85.94539187 229.46140696 89.88085938 229.51171875 C97.58897852 229.61865064 105.29395033 229.78907977 113 230 C106.49716622 216.37696906 99.98640343 202.75823791 93.375 189.1875 C92.98045624 188.37723358 92.58591248 187.56696716 92.17941284 186.73214722 C79.09735685 159.89525834 65.65997719 133.23215211 52.27954102 106.54321289 C49.51591603 101.03069412 46.75612614 95.51627161 44 90 C41.47347518 93.26826216 39.70259071 96.47729255 37.953125 100.23046875 C37.52180519 101.15156937 37.52180519 101.15156937 37.08177185 102.09127808 C36.13305763 104.12115663 35.19137882 106.15421035 34.25 108.1875 C33.57810092 109.63022946 32.90597767 111.07285454 32.23364258 112.51538086 C27.03129079 123.69673065 21.92173213 134.91997974 16.83447266 146.15405273 C11.97815401 156.8744879 7.06317073 167.56704137 2.125 178.25 C0.59762836 181.55467461 -0.92972932 184.85935567 -2.45703125 188.1640625 C-2.83524017 188.98236038 -3.2134491 189.80065826 -3.6031189 190.64375305 C-7.60206145 199.29843547 -11.58384095 207.9609782 -15.5625 216.625 C-15.91117126 217.38421753 -16.25984253 218.14343506 -16.61907959 218.92565918 C-18.37662689 222.75275524 -20.13393631 226.57996046 -21.89111328 230.40722656 C-25.07147524 237.33397052 -28.2540792 244.25968438 -31.43649292 251.18548584 C-33.20775176 255.04028263 -34.97886877 258.89514458 -36.75 262.75 C-37.45833265 264.29166698 -38.16666599 265.83333365 -38.875 267.375 C-39.225625 268.138125 -39.57625 268.90125 -39.9375 269.6875 C-43.125 276.625 -43.125 276.625 -44.18734741 278.93714905 C-44.89620844 280.4799768 -45.60505037 282.02281331 -46.31387329 283.56565857 C-48.0764771 287.40213258 -49.83940432 291.2384573 -51.60302734 295.07446289 C-54.88890314 302.22236897 -58.17165073 309.37166064 -61.44329834 316.52609253 C-62.96902409 319.86203477 -64.49653418 323.19715862 -66.02416992 326.53222656 C-66.74364335 328.10424967 -67.46226706 329.67666201 -68.17993164 331.24951172 C-69.18282189 333.44731978 -70.18879061 335.64369694 -71.1953125 337.83984375 C-71.47702301 338.4593541 -71.75873352 339.07886444 -72.04898071 339.71714783 C-75.19774227 346.57136328 -78.61993005 353.23986011 -82 360 C-110.38 360 -138.76 360 -168 360 C-167.14624339 354.87746033 -166.21460406 351.86978821 -164.03515625 347.3125 C-163.7306958 346.67031525 -163.42623535 346.02813049 -163.11254883 345.3664856 C-162.10282932 343.24092855 -161.08264252 341.12057172 -160.0625 339 C-159.34162549 337.4871693 -158.62150773 335.97397779 -157.90209961 334.46044922 C-156.38242751 331.26580551 -154.85875162 328.0731171 -153.33203125 324.88183594 C-151.05363802 320.11673517 -148.79003426 315.3447346 -146.53125 310.5703125 C-146.16381683 309.7937027 -145.79638367 309.0170929 -145.41781616 308.21694946 C-144.67358672 306.64381679 -143.92939528 305.07066612 -143.1852417 303.49749756 C-141.6740248 300.30410197 -140.1606867 297.11171373 -138.64730835 293.91934204 C-133.90174718 283.9087867 -129.16686058 273.89321806 -124.4375 263.875 C-124.0887381 263.1362262 -123.7399762 262.39745239 -123.38064575 261.6362915 C-121.62325331 257.91351795 -119.86603136 254.19066396 -118.10888672 250.46777344 C-114.21927744 242.22705672 -110.32754531 233.9873422 -106.43621826 225.74743652 C-105.3728305 223.49569295 -104.30945658 221.24394285 -103.24609375 218.9921875 C-102.89526733 218.24928467 -102.54444092 217.50638184 -102.1829834 216.7409668 C-100.06760284 212.26130879 -97.95269932 207.78142593 -95.83818054 203.30136108 C-94.07978163 199.57583126 -92.32119094 195.85039198 -90.5625 192.125 C-90.21381866 191.38638733 -89.86513733 190.64777466 -89.50588989 189.88677979 C-83.61489427 177.40903243 -77.7078895 164.93891131 -71.79763794 152.47027588 C-66.18501068 140.62810679 -60.59471636 128.77563294 -55.02023315 116.91546631 C-49.70134166 105.60023129 -44.35626896 94.29758533 -39 83 C-33.23565327 70.84007019 -27.48149175 58.67545379 -21.75 46.5 C-21.31131592 45.56873291 -21.31131592 45.56873291 -20.86376953 44.61865234 C-13.86796661 29.76498561 -6.94325094 14.87839486 0 0 Z " fill="#0C293C" transform="translate(2142,1420)"/>
<path d="M0 0 C27.39 0 54.78 0 83 0 C94.44182568 21.73946879 94.44182568 21.73946879 97.8125 28.74609375 C98.65192265 30.47400477 99.49144606 32.20186684 100.33105469 33.9296875 C100.76365601 34.82268555 101.19625732 35.71568359 101.64196777 36.63574219 C109.21854307 52.26698318 116.89796943 67.84505781 124.671875 83.37890625 C125.23285133 84.49992139 125.23285133 84.49992139 125.80516052 85.6435833 C129.54366428 93.11271408 133.28713759 100.57934115 137.03579712 108.04337978 C149.69618571 133.2563827 149.69618571 133.2563827 155.296875 145.09375 C160.12936431 155.30050734 165.16121387 165.40350343 170.21875 175.5 C170.63288399 176.32682785 171.04701797 177.1536557 171.47370148 178.00553894 C174.47962957 184.00511736 177.48942544 190.00275214 180.5 196 C183.92964068 202.83205308 187.35773782 209.66487352 190.78125 216.5 C191.40367081 217.74256058 191.40367081 217.74256058 192.03866577 219.01022339 C197.0481403 229.01724541 201.98069513 239.05207602 206.76379395 249.16967773 C211.05136422 258.1960986 215.5244692 267.12827607 220 276.0625 C220.60516197 277.27066376 220.60516197 277.27066376 221.22254944 278.50323486 C224.14552467 284.33691658 227.07237155 290.16865243 230 296 C248.96445195 333.77402511 248.96445195 333.77402511 255.6875 347.75 C256.13931641 348.68448975 256.59113281 349.61897949 257.05664062 350.58178711 C257.45431641 351.41589111 257.85199219 352.24999512 258.26171875 353.109375 C258.60162842 353.82061523 258.94153809 354.53185547 259.29174805 355.26464844 C260 357 260 357 260 359 C230.3 359 200.6 359 170 359 C160.97333841 342.07500952 160.97333841 342.07500952 156.9375 333.4375 C152.367538 323.77353594 147.65236064 314.1875598 142.875 304.625 C142.53926971 303.95113251 142.20353943 303.27726501 141.8576355 302.58297729 C140.9047635 300.67135661 139.94902611 298.76120027 138.9921875 296.8515625 C138.43901855 295.74635254 137.88584961 294.64114258 137.31591797 293.50244141 C136.22350326 291.1245883 136.22350326 291.1245883 135 290 C133.43153881 289.89194335 131.85825535 289.85316214 130.28611755 289.84178162 C129.26663025 289.8319928 128.24714294 289.82220398 127.19676208 289.81211853 C125.50499596 289.80348534 125.50499596 289.80348534 123.77905273 289.79467773 C122.59872467 289.78477814 121.41839661 289.77487854 120.20230103 289.76467896 C116.95660881 289.73842921 113.71092205 289.71659283 110.46518588 289.69667697 C107.07654048 289.67485448 103.68794048 289.64744757 100.29933167 289.62062073 C93.8784749 289.57064314 87.457593 289.52572318 81.03668696 289.48259836 C73.72842951 289.43326919 66.4202176 289.37833509 59.11200416 289.32291877 C44.07471186 289.20902099 29.0373767 289.10219902 14 289 C14.60561474 285.07801443 15.28743349 281.94005988 17.1171875 278.41015625 C17.55409912 277.55437988 17.99101074 276.69860352 18.44116211 275.81689453 C18.91432861 274.90794434 19.38749512 273.99899414 19.875 273.0625 C20.87554628 271.10380767 21.87418217 269.14413852 22.87109375 267.18359375 C23.38655762 266.17151855 23.90202148 265.15944336 24.43310547 264.11669922 C27.48464712 258.04689854 30.3817162 251.90311876 33.29443359 245.76586914 C40.58898695 230.41101305 40.58898695 230.41101305 42 229 C44.14743549 228.90574405 46.29801026 228.88257352 48.44750977 228.88647461 C49.12065216 228.88632858 49.79379456 228.88618256 50.48733521 228.8860321 C52.72205784 228.88673122 54.9566981 228.89452348 57.19140625 228.90234375 C58.73697362 228.90420794 60.28254157 228.90563184 61.82810974 228.90663147 C65.90357077 228.9104566 69.97899637 228.92028683 74.05444336 228.93133545 C78.21011882 228.94154968 82.36579999 228.94612911 86.52148438 228.95117188 C94.68100587 228.96190911 102.84049853 228.97898546 111 229 C104.79097295 215.81170697 98.40486614 202.71918956 91.875 189.6875 C91.51727509 188.9734903 91.15955017 188.25948059 90.79098511 187.52383423 C88.19684685 182.34778773 85.59883261 177.17369074 83 172 C80.03907479 166.1054644 77.0797729 160.21012241 74.125 154.3125 C73.76884424 153.60172995 73.41268848 152.89095989 73.04574013 152.15865135 C67.65742836 141.39734676 62.40184531 130.57933454 57.24365234 119.70556641 C54.07484676 113.03274686 50.73660277 106.44955169 47.37304688 99.87304688 C46.92638672 98.99068359 46.47972656 98.10832031 46.01953125 97.19921875 C45.62870361 96.43440186 45.23787598 95.66958496 44.83520508 94.8815918 C44 93 44 93 44 91 C43.01 91 42.02 91 41 91 C40.65324219 92.14984375 40.30648437 93.2996875 39.94921875 94.484375 C37.71725215 101.16597564 34.7462242 107.53198086 31.8520813 113.94522095 C30.04226552 117.95763008 28.24797286 121.97697192 26.453125 125.99609375 C26.08208145 126.82638596 25.7110379 127.65667816 25.32875061 128.51213074 C21.50498026 137.08283671 17.77567829 145.69342974 14.0625 154.3125 C12.72934427 157.4050245 11.39595841 160.49744975 10.0625 163.58984375 C9.7299823 164.36114624 9.3974646 165.13244873 9.05487061 165.92712402 C5.24757803 174.75331879 1.40628265 183.56464933 -2.4375 192.375 C-2.78980682 193.18264801 -3.14211365 193.99029602 -3.50509644 194.82241821 C-5.2893724 198.91267665 -7.07401932 203.00277306 -8.85888672 207.09277344 C-12.05436139 214.41569829 -15.24630066 221.74016419 -18.43850708 229.06451416 C-20.20885993 233.12640589 -21.97944154 237.18819789 -23.75 241.25 C-24.45833443 242.87499952 -25.16666776 244.49999952 -25.875 246.125 C-27.29166667 249.375 -28.70833333 252.625 -30.125 255.875 C-30.47560486 256.67932968 -30.82620972 257.48365936 -31.18743896 258.31236267 C-31.89597312 259.93782158 -32.6045099 261.56327934 -33.31304932 263.18873596 C-35.08083164 267.24420525 -36.84856866 271.29969428 -38.61621094 275.35522461 C-41.83998777 282.75146452 -45.06411988 290.14754866 -48.28991699 297.54290771 C-49.75025359 300.89089577 -51.21034685 304.23898992 -52.67041016 307.58709717 C-53.38547217 309.22667032 -54.10064003 310.86619731 -54.81591797 312.50567627 C-58.53255846 321.02484059 -62.24107261 329.54731314 -65.921875 338.08203125 C-66.22889343 338.79329666 -66.53591187 339.50456207 -66.85223389 340.23738098 C-68.28952708 343.56723601 -69.72463871 346.89799159 -71.15527344 350.23071289 C-71.6505957 351.37918701 -72.14591797 352.52766113 -72.65625 353.7109375 C-73.08744141 354.71431152 -73.51863281 355.71768555 -73.96289062 356.75146484 C-75 359 -75 359 -76 360 C-78.70838086 360.09514592 -81.39118513 360.12554932 -84.09985352 360.11352539 C-84.94856018 360.11367142 -85.79726685 360.11381744 -86.67169189 360.1139679 C-89.49078891 360.11326848 -92.30982071 360.10547478 -95.12890625 360.09765625 C-97.07803817 360.09579217 -99.02717055 360.09436822 -100.9763031 360.09336853 C-106.11706832 360.08954255 -111.25780547 360.07971159 -116.39855957 360.06866455 C-121.64005148 360.05845215 -126.8815479 360.05387128 -132.12304688 360.04882812 C-142.41537694 360.03808939 -152.70768614 360.02101201 -163 360 C-164.4193198 355.74204059 -162.52800707 353.17564198 -160.6875 349.3359375 C-160.3276149 348.56485657 -159.9677298 347.79377563 -159.59693909 346.99932861 C-158.40670287 344.4536852 -157.20320171 341.91453744 -156 339.375 C-155.16544954 337.59477026 -154.33204699 335.81400198 -153.49975586 334.03271484 C-152.22790815 331.31086034 -150.95543626 328.58932223 -149.6794281 325.86941528 C-146.20819405 318.46825957 -142.81176531 311.03539703 -139.44775391 303.58502197 C-133.14631103 289.63313043 -126.72140873 275.73990383 -120.27175903 261.85601807 C-114.9634823 250.42673435 -109.6967552 238.98041346 -104.5 227.5 C-98.50163294 214.24870544 -92.39968355 201.04717254 -86.27148438 187.85546875 C-80.963301 176.4263658 -75.69679607 164.98017083 -70.5 153.5 C-64.92120519 141.1769129 -59.26002169 128.89363209 -53.5625 116.625 C-47.32198799 103.18694066 -41.1176701 89.73354345 -34.96969604 76.25289917 C-28.84375595 62.82195078 -22.66459962 49.41595656 -16.46459961 36.01904297 C-10.92360011 24.03563123 -5.46359824 12.01991613 0 0 Z " fill="#0C293C" transform="translate(353,1421)"/>
<path d="M0 0 C1.15786168 -0.00260775 2.31572336 -0.00521549 3.50867176 -0.00790226 C4.79687163 -0.00567154 6.08507151 -0.00344082 7.41230774 -0.0011425 C8.78189225 -0.00229337 10.15147644 -0.00388066 11.52105999 -0.00586975 C15.30220083 -0.01006782 19.08331664 -0.00797024 22.86445761 -0.00488353 C26.93539193 -0.00263158 31.00632179 -0.00610801 35.07725525 -0.00886345 C43.05917539 -0.01332235 51.04108616 -0.01234415 59.02300668 -0.00945081 C65.50705305 -0.00719724 71.99109678 -0.00688405 78.47514343 -0.00797462 C79.85663701 -0.00820447 79.85663701 -0.00820447 81.26603955 -0.00843897 C83.13671629 -0.00875868 85.00739302 -0.00908289 86.87806976 -0.00941156 C104.44112205 -0.0122667 122.00416913 -0.00897879 139.56722057 -0.00361119 C154.65433882 0.00085688 169.74144939 0.00008095 184.8285675 -0.00452995 C202.32651935 -0.00987511 219.82446662 -0.01199201 237.32241917 -0.00891769 C239.18641726 -0.00859912 241.05041536 -0.00828475 242.91441345 -0.00797462 C243.83166236 -0.00782035 244.74891127 -0.00766607 245.6939556 -0.00750712 C252.1741606 -0.00664179 258.65436271 -0.00810519 265.13456726 -0.01045418 C273.02610219 -0.01325173 280.91762717 -0.01251487 288.80916095 -0.00717343 C292.83957769 -0.00453581 296.8699778 -0.00353238 300.90039444 -0.00682259 C304.58399374 -0.00978431 308.26756087 -0.00819484 311.95115721 -0.00284503 C313.9277332 -0.00118411 315.9043114 -0.00447951 317.88088512 -0.00790226 C319.61767765 -0.00399064 319.61767765 -0.00399064 321.38955688 0 C322.39717229 0.00016235 323.40478769 0.0003247 324.4429369 0.00049198 C326.69477844 0.12584114 326.69477844 0.12584114 327.69477844 1.12584114 C327.79408377 3.11471608 327.82277306 5.10714531 327.82417297 7.09849739 C327.82732513 8.37652229 327.83047729 9.6545472 327.83372498 10.97130013 C327.8319352 12.37698081 327.82988424 13.78266119 327.82759094 15.18834114 C327.82826403 16.61941227 327.82923409 18.05048329 327.83049011 19.48155403 C327.83196688 22.48441338 327.82981321 25.48724304 327.82514954 28.49009895 C327.81945225 32.34736685 327.82273137 36.20456518 327.828722 40.06183052 C327.83232818 43.01797705 327.83118877 45.97410697 327.82859421 48.93025398 C327.8279251 50.35288183 327.82875281 51.77551117 327.83107376 53.19813728 C327.83360118 55.18315288 327.82906887 57.16817373 327.82417297 59.15318489 C327.82297958 60.85075935 327.82297958 60.85075935 327.82176208 62.58262825 C327.69477844 65.12584114 327.69477844 65.12584114 326.69477844 66.12584114 C325.08829329 66.23399971 323.47708622 66.2726866 321.86700439 66.28405952 C320.82227463 66.29384834 319.77754486 66.30363716 318.70115662 66.31372261 C317.54526031 66.31947807 316.38936401 66.32523354 315.19844055 66.33116341 C313.98885178 66.341063 312.779263 66.3509626 311.53302002 66.36116219 C308.20674422 66.3874127 304.88049323 66.4092487 301.55417705 66.42916417 C298.08145065 66.45098609 294.60876857 66.47839328 291.13607788 66.50522041 C284.55584867 66.55519877 277.97559493 66.60011844 271.39531761 66.64324278 C263.90568585 66.6925713 256.41609854 66.74750564 248.92650974 66.80292237 C233.51597368 66.91682132 218.1053968 67.02364304 202.69477844 67.12584114 C202.69304219 67.7475565 202.69130594 68.36927186 202.68951708 69.00982708 C202.58659571 105.8186904 202.47850642 142.62753515 202.3636615 179.43636328 C202.34989114 183.85132909 202.33616416 188.26629503 202.32246399 192.68126106 C202.31973568 193.5602395 202.31700738 194.43921793 202.3141964 195.34483207 C202.27006393 209.59637349 202.22945014 223.84792289 202.19012583 238.0994783 C202.14972846 252.71168573 202.10557507 267.3238783 202.05789989 281.93606383 C202.02857683 290.96003126 202.00221971 299.98399752 201.97959947 309.00798429 C201.96382957 315.18742179 201.94442716 321.36684108 201.92211003 327.54625838 C201.90932356 331.11692622 201.89819434 334.68757993 201.89135933 338.25826454 C201.88392507 342.12027193 201.86887004 345.98222722 201.85299683 349.84420967 C201.85201872 350.98523563 201.85104061 352.12626159 201.85003287 353.30186409 C201.84455842 354.32797344 201.83908398 355.35408278 201.83344364 356.41128635 C201.8307856 357.30400885 201.82812756 358.19673135 201.82538897 359.11650604 C201.69477844 361.12584114 201.69477844 361.12584114 200.69477844 362.12584114 C198.20524147 362.2261798 195.74342891 362.26202057 193.25337219 362.25523567 C192.47454681 362.25698799 191.69572144 362.25874031 190.89329529 362.26054573 C188.30626733 362.26496463 185.71930715 362.26202613 183.13227844 362.25865364 C181.34248339 362.25932667 179.55268842 362.26029668 177.76289368 362.26155281 C174.00678133 362.26302984 170.25069272 362.26087508 166.49458313 362.25621223 C161.66877351 362.25051494 156.84301949 362.25379392 152.01721191 362.2597847 C148.31989621 362.26339019 144.6225938 362.26225178 140.92527771 362.25965691 C139.14539076 362.2589876 137.36550263 362.25981617 135.58561707 362.26213646 C133.10244022 362.26466279 130.6193547 362.26082268 128.13618469 362.25523567 C127.02184555 362.25827202 127.02184555 362.25827202 125.88499451 362.26136971 C120.80904106 362.24010376 120.80904106 362.24010376 119.69477844 361.12584114 C119.59279787 359.55695425 119.56079437 357.98347724 119.55611324 356.41128635 C119.5506388 355.38517701 119.54516436 354.35906766 119.53952402 353.30186409 C119.53854591 352.16083813 119.53756781 351.01981217 119.53656006 349.84420967 C119.53162208 348.64279085 119.5266841 347.44137203 119.52159649 346.20354658 C119.50883902 342.85373413 119.50058207 339.50396368 119.49416983 336.15413654 C119.48618863 332.5474279 119.47248307 328.94074063 119.4594574 325.33404732 C119.43766217 319.08020825 119.41952888 312.82636705 119.40385246 306.57250977 C119.38118149 297.53037879 119.35303488 288.48827146 119.32353318 279.4461605 C119.27582318 264.77746746 119.23256827 250.10876478 119.1920929 235.44005013 C119.15275528 221.1871128 119.11133324 206.93418405 119.0670929 192.68126106 C119.06436862 191.80334709 119.06164435 190.92543311 119.05883753 190.02091568 C119.04515833 185.61686926 119.031438 181.21282297 119.01769722 176.80877674 C118.90367892 140.24781501 118.79769818 103.68683613 118.69477844 67.12584114 C77.44477844 66.79584114 36.19477844 66.46584114 -6.30522156 66.12584114 C-6.32584656 55.42146614 -6.34647156 44.71709114 -6.36772156 33.68834114 C-6.37682556 30.30398811 -6.38592957 26.91963509 -6.39530945 23.43272591 C-6.3982283 20.76923347 -6.40077693 18.1057406 -6.40287781 15.44224739 C-6.40549118 14.74574577 -6.40810455 14.04924416 -6.41079712 13.33163643 C-6.41807764 11.28982335 -6.41855995 9.24798946 -6.41874695 7.20616341 C-6.42096756 6.053666 -6.42318817 4.90116859 -6.42547607 3.71374702 C-6.21104189 -0.90092776 -4.10195894 0.00066093 0 0 Z " fill="#0C293C" transform="translate(2423.305221557617,1418.874158859253)"/>
<path d="M0 0 C1.16769517 -0.00260775 2.33539034 -0.00521549 3.53847021 -0.00790226 C4.83766081 -0.00567154 6.1368514 -0.00344082 7.47541142 -0.0011425 C8.85665763 -0.00229337 10.23790353 -0.00388066 11.61914879 -0.00586975 C15.43256367 -0.01006788 19.24595373 -0.0079702 23.05936873 -0.00488353 C27.16508732 -0.00263158 31.27080148 -0.00610802 35.3765192 -0.00886345 C43.42695472 -0.01332247 51.47738094 -0.01234406 59.52781682 -0.00945081 C66.06810937 -0.00719714 72.60839931 -0.0068841 79.14869213 -0.00797462 C80.54224175 -0.00820447 80.54224175 -0.00820447 81.96394389 -0.00843897 C83.85096589 -0.00875868 85.7379879 -0.00908289 87.6250099 -0.00941156 C105.34212892 -0.01226678 123.05924277 -0.00897875 140.77636094 -0.00361119 C155.99335354 0.00085615 171.21033851 0.00008157 186.42733097 -0.00452995 C204.0772796 -0.00987624 221.72722369 -0.01199131 239.37717301 -0.00891769 C241.25775913 -0.00859912 243.13834526 -0.00828475 245.01893139 -0.00797462 C245.94433192 -0.00782035 246.86973244 -0.00766607 247.82317541 -0.00750712 C254.35851492 -0.00664208 260.89385157 -0.00810459 267.42919064 -0.01045418 C275.38950081 -0.01325301 283.34980111 -0.01251217 291.31011014 -0.00717343 C295.37508027 -0.00453744 299.44003391 -0.00352963 303.50500393 -0.00682259 C307.22134625 -0.00978768 310.93765672 -0.00818913 314.65399612 -0.00284503 C316.64573933 -0.00118688 318.63748472 -0.00447655 320.62922567 -0.00790226 C321.79952859 -0.00529452 322.9698315 -0.00268677 324.17559814 0 C325.19194712 0.00016235 326.20829609 0.0003247 327.25544351 0.00049198 C329.65071964 0.12584114 329.65071964 0.12584114 331.65071964 1.12584114 C331.67384649 9.45313062 331.69163647 17.78040677 331.70253181 26.10772038 C331.7077599 29.97404232 331.71485618 33.84034235 331.7261591 37.70665169 C331.73699064 41.43487515 331.74299704 45.16307749 331.74559689 48.89131546 C331.74745065 50.3167377 331.75107035 51.74215873 331.7564497 53.16757202 C331.76366357 55.15747522 331.76412773 57.14739948 331.76424503 59.13731575 C331.76646564 60.27204826 331.76868626 61.40678078 331.77097416 62.57589912 C331.65071964 65.12584114 331.65071964 65.12584114 330.65071964 66.12584114 C329.02106113 66.2318853 327.38682684 66.26825064 325.75374699 66.2773304 C324.16357761 66.28984589 324.16357761 66.28984589 322.54128361 66.30261421 C320.78174351 66.30889084 320.78174351 66.30889084 318.98665714 66.31529427 C317.75916752 66.32358757 316.53167789 66.33188087 315.26699162 66.34042549 C312.59160469 66.35787222 309.91627577 66.37351917 307.24086857 66.38620186 C303.01465217 66.40637247 298.7885056 66.43403113 294.56234074 66.46287727 C284.82805413 66.52816353 275.09371571 66.58353731 265.35936832 66.63886452 C256.44031305 66.68965918 247.52128305 66.74251247 238.60229015 66.80339003 C234.39688393 66.83180759 230.19148614 66.85537888 225.98603153 66.87531471 C222.76225654 66.89179643 219.53852503 66.9146074 216.31478214 66.93638802 C214.55524204 66.94266464 214.55524204 66.94266464 212.76015568 66.94906807 C211.16998631 66.96158356 211.16998631 66.96158356 209.5476923 66.97435188 C208.62074558 66.97950562 207.69379887 66.98465935 206.73876286 66.98996925 C204.6621135 66.89454756 204.6621135 66.89454756 203.65071964 68.12584114 C203.55145921 69.68252888 203.52225186 71.24372648 203.52043438 72.80357456 C203.51499786 74.3304383 203.51499786 74.3304383 203.50945151 75.88814777 C203.51051976 77.02002759 203.51158801 78.15190741 203.51268864 79.31808662 C203.50986736 80.50992721 203.50704608 81.70176779 203.5041393 82.92972475 C203.4972171 86.25287877 203.49476532 89.57598394 203.49408817 92.89914167 C203.49225376 96.47725265 203.48465 100.05535142 203.47760868 103.63345528 C203.46606606 109.83818536 203.45783072 116.0429127 203.45148945 122.24765015 C203.44118304 132.04833848 203.42062513 141.84899267 203.39836979 151.64966011 C203.39088957 154.999524 203.38347593 158.34938804 203.37608242 161.69925213 C203.37330657 162.95509356 203.37330657 162.95509356 203.37047464 164.23630552 C203.34953429 173.77329259 203.33071183 183.31028343 203.31282902 192.84727669 C203.31119084 193.71944608 203.30955265 194.59161547 203.30786483 195.49021424 C203.28156728 209.63108731 203.26293161 223.77196301 203.24623711 237.91285019 C203.22883833 252.41550153 203.20001695 266.91810136 203.16134775 281.42071158 C203.13790211 290.3749022 203.12394909 299.32900887 203.12202011 308.28323043 C203.1199165 314.4155042 203.10703591 320.54769435 203.08554079 326.67993062 C203.0734698 330.2224253 203.06638807 333.76475392 203.07225323 337.30726814 C203.07848637 341.14049591 203.0618012 344.97342194 203.04271793 348.80661201 C203.04824763 349.93626111 203.05377733 351.06591021 203.05947459 352.2297911 C203.04621482 353.76056646 203.04621482 353.76056646 203.03268719 355.32226658 C203.03133066 356.20799176 203.02997413 357.09371693 203.02857649 358.00628227 C202.84153735 359.05546391 202.84153735 359.05546391 202.65071964 360.12584114 C198.92938445 362.60673127 197.02625005 362.37917152 192.58065128 362.3846302 C191.86487415 362.38813484 191.14909702 362.39163948 190.41162968 362.39525032 C188.04461319 362.40405541 185.67789544 362.39822228 183.31087589 362.39146614 C181.66564724 362.39281329 180.02041898 362.39475425 178.37519169 362.39726448 C174.92606156 362.40021421 171.477035 362.39592354 168.02791691 362.38658333 C163.60819869 362.3751978 159.18872362 362.38174345 154.76901436 362.39372826 C151.37095149 362.4009586 147.97294616 362.39865338 144.57488155 362.39347267 C142.94540153 362.39213896 141.31591628 362.39377415 139.68644238 362.39843178 C137.40754858 362.40351532 135.12904714 362.39576089 132.85018253 362.3846302 C131.55351154 362.38303902 130.25684055 362.38144783 128.9208765 362.37980843 C125.79207942 362.13681944 124.32688985 361.59257604 121.65071964 360.12584114 C121.65128922 359.19961601 121.65128922 359.19961601 121.65187031 358.25467926 C121.67422521 321.69634883 121.69139446 285.13801941 121.70178497 248.57968355 C121.70303575 244.19476015 121.70433007 239.80983678 121.70565128 235.42491341 C121.70591359 234.5519162 121.7061759 233.678919 121.70644616 232.77946734 C121.71080314 218.62491434 121.71869084 204.47036539 121.72787244 190.3158148 C121.73720822 175.80306097 121.74277509 161.29030926 121.74480814 146.77755255 C121.74618352 137.81499301 121.75053495 128.8524449 121.75863611 119.88988888 C121.76390263 113.75251246 121.76552415 107.61514199 121.76422102 101.47776348 C121.76357749 97.93139011 121.7645968 94.38503677 121.76992512 90.83866692 C121.77564642 87.002952 121.77372072 83.16726361 121.77097416 79.33154488 C121.773887 78.19830082 121.77679984 77.06505675 121.77980095 75.89747196 C121.7778099 74.87832941 121.77581885 73.85918685 121.77376747 72.80916119 C121.77433705 71.47919073 121.77433705 71.47919073 121.77491814 70.12235218 C121.87183133 68.12633953 121.87183133 68.12633953 120.65071964 67.12584114 C119.02106113 67.01979699 117.38682684 66.98343165 115.75374699 66.97435188 C114.69363407 66.96600822 113.63352116 66.95766457 112.54128361 66.94906807 C111.36825687 66.94488365 110.19523014 66.94069923 108.98665714 66.93638802 C107.14542271 66.92394806 107.14542271 66.92394806 105.26699162 66.91125679 C102.59160469 66.89381007 99.91627577 66.87816311 97.24086857 66.86548042 C93.01465217 66.84530981 88.7885056 66.81765116 84.56234074 66.78880501 C75.591833 66.72864129 66.62128353 66.67682722 57.65071964 66.62584114 C47.96788006 66.57080669 38.28506158 66.51438307 28.60229015 66.44829226 C24.39688393 66.41987469 20.19148614 66.3963034 15.98603153 66.37636757 C12.76225654 66.35988585 9.53852503 66.33707488 6.31478214 66.31529427 C5.14175541 66.31110985 3.96872868 66.30692543 2.76015568 66.30261421 C1.70004276 66.29427055 0.63992985 66.2859269 -0.4523077 66.2773304 C-1.84272778 66.2695998 -1.84272778 66.2695998 -3.26123714 66.26171303 C-5.34928036 66.12584114 -5.34928036 66.12584114 -6.34928036 65.12584114 C-6.44858568 63.1369662 -6.47727497 61.14453697 -6.47867489 59.15318489 C-6.48182705 57.87515999 -6.48497921 56.59713509 -6.48822689 55.28038216 C-6.48643711 53.87470147 -6.48438616 52.4690211 -6.48209286 51.06334114 C-6.48276594 49.63227001 -6.483736 48.20119899 -6.48499203 46.77012825 C-6.4864688 43.7672689 -6.48431512 40.76443924 -6.47965145 37.76158333 C-6.47395416 33.90431543 -6.47723328 30.0471171 -6.48322392 26.18985176 C-6.4868301 23.23370523 -6.48569068 20.27757532 -6.48309612 17.3214283 C-6.48242701 15.89880045 -6.48325473 14.47617111 -6.48557568 13.053545 C-6.48810309 11.06852941 -6.48357078 9.08350855 -6.47867489 7.09849739 C-6.4778793 5.96678108 -6.4770837 4.83506477 -6.476264 3.66905403 C-6.24716048 -0.91940338 -4.07008533 0.00065026 0 0 Z " fill="#0C293C" transform="translate(2831.349280357361,1418.874158859253)"/>
<path d="M0 0 C3.99609218 0.58879836 6.82909161 1.83788309 10.296875 3.88671875 C11.32506348 4.48822754 12.35325195 5.08973633 13.41259766 5.70947266 C14.51394043 6.36222168 15.6152832 7.0149707 16.75 7.6875 C19.1048317 9.06712775 21.46277041 10.44141665 23.8203125 11.81640625 C24.41987762 12.16701111 25.01944275 12.51761597 25.63717651 12.87884521 C42.52644239 22.74534459 59.72066628 32.08434772 76.94335938 41.35253906 C80.05379561 43.02899463 83.16006252 44.71297278 86.265625 46.3984375 C102.40229549 55.14381426 118.65076554 63.66026464 135 72 C135.99737183 72.50947174 135.99737183 72.50947174 137.01489258 73.02923584 C158.41357736 83.95480018 180.00793798 94.32204407 202 104 C202.70876282 104.31195313 203.41752563 104.62390625 204.14776611 104.9453125 C225.1857465 114.18949781 246.40202297 122.91581672 267.84698486 131.16992188 C270.05269422 132.02031584 272.25672763 132.87493791 274.46044922 133.73046875 C296.43771327 142.2541527 318.5728611 150.09925186 341.00085449 157.35290527 C342.92476488 157.97564747 344.84765803 158.60152969 346.77050781 159.22753906 C357.28215283 162.64852285 367.79199717 166.05535863 378.4453125 169.01171875 C381.2378648 169.78810966 384.02201533 170.58395496 386.8046875 171.39453125 C396.38479783 174.17798389 405.98068982 176.79570112 415.67016602 179.17114258 C423.5053811 181.09984676 431.26989017 183.25515211 439.03466797 185.44775391 C443.34868166 186.65996496 447.6748656 187.82821249 452 189 C452 190.32 452 191.64 452 193 C440.97261935 195.95221214 429.85579926 198.30277221 418.671875 200.57885742 C409.69080552 202.41708469 400.74781913 204.38920425 391.8125 206.4375 C380.79846908 208.95905274 369.76072817 211.31549425 358.6875 213.5625 C345.28694425 216.28201619 331.96201052 219.257219 318.64941406 222.38183594 C314.97974249 223.23804755 311.30547864 224.06635274 307.625 224.875 C306.09746094 225.21144531 306.09746094 225.21144531 304.5390625 225.5546875 C302 226 302 226 298 226 C300.80218936 231.14175312 303.92878831 235.74242443 307.5 240.375 C313.42189184 248.16131011 319.08502287 256.10847386 324.68408203 264.12890625 C325.87738672 265.82565711 327.09182576 267.50749547 328.30859375 269.1875 C328.94925781 270.074375 329.58992188 270.96125 330.25 271.875 C330.79140625 272.61492187 331.3328125 273.35484375 331.890625 274.1171875 C333 276 333 276 333 279 C332.1335083 279.08975098 331.2670166 279.17950195 330.37426758 279.27197266 C297.09360628 282.77061388 264.41273694 287.51892229 232 296 C229.78145511 296.56980962 227.56270826 297.13883351 225.34375 297.70703125 C215.21997927 300.28752491 215.21997927 300.28752491 205.1796875 303.16796875 C202.16041777 303.95802336 200.0826557 304.34968251 197 304 C195.41699219 302.48486328 195.41699219 302.48486328 194.046875 300.3203125 C193.25567261 299.10118164 193.25567261 299.10118164 192.44848633 297.85742188 C191.88798584 296.95572266 191.32748535 296.05402344 190.75 295.125 C189.84254028 293.71444336 189.84254028 293.71444336 188.91674805 292.27539062 C187.60954124 290.24288094 186.30925875 288.20590491 185.01513672 286.16503906 C182.35262003 281.98320402 179.63238865 277.84053712 176.91113281 273.69677734 C174.76433773 270.42663603 172.62541591 267.15146171 170.48828125 263.875 C166.23506318 257.3561247 161.97014002 250.84495508 157.70297241 244.33520508 C150.59915112 233.49790842 143.50356392 222.65526539 136.4140625 211.80859375 C131.11483086 203.70214832 125.80863809 195.6002865 120.5 187.5 C114.49474255 178.3367636 108.49402443 169.17059085 102.5 160 C96.54691997 150.89238551 90.58841646 141.78834811 84.625 132.6875 C84.23024475 132.08505463 83.8354895 131.48260925 83.42877197 130.86190796 C80.61935699 126.57449017 77.80970525 122.28722756 75 118 C71.79150454 113.10427289 68.58311309 108.20847768 65.375 103.3125 C64.98008362 102.70981293 64.58516724 102.10712585 64.17828369 101.48617554 C58.61395712 92.99398245 53.05504048 84.4982715 47.5 76 C46.10028219 73.85936076 44.70054247 71.71873585 43.30078125 69.578125 C41.11165611 66.23034694 38.92291905 62.88231805 36.73583984 59.53320312 C34.7831103 56.54301415 32.82904442 53.55370197 30.87417603 50.56491089 C30.08679901 49.36069079 29.29982804 48.15620509 28.51327515 46.95144653 C23.84859026 39.80796232 19.13605833 32.70059776 14.3515625 25.63671875 C13.41694669 24.2523643 12.48245637 22.86792511 11.5480957 21.48339844 C9.75717479 18.82991754 7.95453284 16.18493835 6.14526367 13.54394531 C5.33205482 12.34080876 4.51928694 11.137374 3.70703125 9.93359375 C2.9900708 8.88228271 2.27311035 7.83097168 1.53442383 6.74780273 C0 4 0 4 0 0 Z " fill="#0C293C" transform="translate(1454,295)"/>
<path d="M0 0 C1.10031303 0.00303635 1.10031303 0.00303635 2.22285461 0.00613403 C2.99192642 0.00438171 3.76099823 0.00262939 4.55337524 0.00082397 C7.10793787 -0.00359483 9.66243185 -0.00065646 12.21699524 0.00271606 C13.98437005 0.00204303 15.75174477 0.00107302 17.51911926 -0.00018311 C21.22815327 -0.00166012 24.93716324 0.00049458 28.64619446 0.00515747 C33.41147017 0.01085476 38.17668956 0.00757577 42.9419632 0.00158501 C46.59295581 -0.00202052 50.24393497 -0.00088206 53.89492798 0.0017128 C55.65248623 0.00238209 57.41004569 0.00155357 59.16760254 -0.00076675 C61.61964678 -0.00329314 64.07159855 0.0005471 66.52363586 0.00613403 C67.25717789 0.0041098 67.99071991 0.00208557 68.74649048 0 C73.7589826 0.02126592 73.7589826 0.02126592 74.87324524 1.13552856 C74.97180512 3.03719599 74.99880186 4.94258198 74.99908638 6.84680176 C75.00169413 8.09523172 75.00430187 9.34366169 75.00698864 10.62992287 C75.00482612 12.03332152 75.00256944 13.43672004 75.00022888 14.84011841 C75.00137972 16.31694769 75.00296699 17.79377669 75.00495613 19.27060509 C75.00915456 23.34818625 75.00705646 27.42574419 75.00396991 31.50332546 C75.0017181 35.89328104 75.00519432 40.28323248 75.00794983 44.67318726 C75.01240889 53.28075735 75.01143046 61.88831875 75.00853719 70.49588919 C75.00628368 77.48813543 75.0059704 84.48037923 75.007061 91.47262573 C75.00721424 92.46578084 75.00736747 93.45893595 75.00752535 94.48218668 C75.00784506 96.49942541 75.00816927 98.51666415 75.00849794 100.53390288 C75.01135313 119.47326824 75.0080651 138.41262876 75.00269757 157.35199332 C74.9982295 173.6216377 74.99900542 189.89127494 75.00361633 206.16091919 C75.00896141 225.03005147 75.01107843 243.89917952 75.00800407 262.76831245 C75.0076855 264.7783521 75.00737113 266.78839175 75.007061 268.7984314 C75.00682959 270.28210506 75.00682959 270.28210506 75.0065935 271.79575193 C75.00572815 278.78391011 75.00719162 285.77206562 75.00954056 292.76022339 C75.01233802 301.2702609 75.01160144 309.78028919 75.00625981 318.29032564 C75.00362207 322.63668355 75.00261896 326.98302604 75.00590897 331.32938385 C75.00887044 335.30164827 75.00728163 339.27388285 75.00193141 343.24614453 C75.00080658 344.689595 75.00139985 346.13304794 75.0038072 347.57649684 C75.00681084 349.525748 75.00315801 351.47500614 74.99908638 353.42425537 C74.99892403 354.5108526 74.99876168 355.59744984 74.9985944 356.71697426 C74.87324524 359.13552856 74.87324524 359.13552856 73.87324524 360.13552856 C71.41419302 360.23584736 68.98321096 360.27171037 66.52363586 360.2649231 C65.75456406 360.26667542 64.98549225 360.26842773 64.19311523 360.27023315 C61.63855261 360.27465196 59.08405863 360.27171359 56.52949524 360.26834106 C54.76212043 360.2690141 52.99474571 360.26998411 51.22737122 360.27124023 C47.51833721 360.27271725 43.80932724 360.27056255 40.10029602 360.26589966 C35.33502031 360.26020237 30.56980092 360.26348135 25.80452728 360.26947212 C22.15353467 360.27307765 18.50255551 360.27193919 14.8515625 360.26934433 C13.09400425 360.26867504 11.33644479 360.26950356 9.57888794 360.27182388 C7.1268437 360.27435027 4.67489193 360.27051003 2.22285461 360.2649231 C1.48931259 360.26694733 0.75577057 360.26897156 0 360.27105713 C-5.01249212 360.24979121 -5.01249212 360.24979121 -6.12675476 359.13552856 C-6.22531464 357.23386114 -6.25231139 355.32847515 -6.2525959 353.42425537 C-6.25650752 351.55161042 -6.25650752 351.55161042 -6.26049817 349.64113426 C-6.25833564 348.23773561 -6.25607896 346.83433709 -6.2537384 345.43093872 C-6.25488924 343.95410944 -6.25647651 342.47728044 -6.25846565 341.00045204 C-6.26266408 336.92287088 -6.26056598 332.84531294 -6.25747943 328.76773167 C-6.25522763 324.37777608 -6.25870384 319.98782465 -6.26145935 315.59786987 C-6.26591841 306.99029978 -6.26493998 298.38273838 -6.26204671 289.77516794 C-6.25979321 282.7829217 -6.25947992 275.7906779 -6.26057053 268.7984314 C-6.26072376 267.80527629 -6.26087699 266.81212117 -6.26103487 265.78887045 C-6.26135458 263.77163172 -6.26167879 261.75439298 -6.26200746 259.73715425 C-6.26486265 240.79778889 -6.26157462 221.85842837 -6.25620709 202.91906381 C-6.25173902 186.64941943 -6.25251494 170.37978219 -6.25712585 154.11013794 C-6.26247093 135.24100565 -6.26458795 116.37187761 -6.26151359 97.50274467 C-6.26119502 95.49270503 -6.26088065 93.48266538 -6.26057053 91.47262573 C-6.26041625 90.48350996 -6.26026198 89.49439418 -6.26010302 88.4753052 C-6.25923767 81.48714702 -6.26070114 74.49899151 -6.26305008 67.51083374 C-6.26584754 59.00079622 -6.26511096 50.49076794 -6.25976934 41.98073149 C-6.25713159 37.63437358 -6.25612849 33.28803109 -6.25941849 28.94167328 C-6.26237996 24.96940886 -6.26079116 20.99717427 -6.25544094 17.0249126 C-6.25431611 15.58146213 -6.25490937 14.13800919 -6.25731672 12.69456029 C-6.26032037 10.74530912 -6.25666754 8.79605098 -6.2525959 6.84680176 C-6.25243355 5.76020452 -6.2522712 4.67360729 -6.25210392 3.55408287 C-6.02332075 -0.860183 -3.89577425 0.01652815 0 0 Z " fill="#0C293C" transform="translate(1184.1267547607422,1419.8644714355469)"/>
</svg>
